<ttFont>
<head>
    <!-- Most of this table will be recalculated by the compiler -->
    <tableVersion value="1.0"/>
    <fontRevision value="2.004"/>
    <checkSumAdjustment value="0x22f1df2f"/>
    <magicNumber value="0x5f0f3cf5"/>
    <flags value="00000000 00000011"/>
    <unitsPerEm value="1000"/>
    <created value="Thu Oct  8 10:01:06 2009"/>
    <modified value="Thu Oct  8 10:01:06 2009"/>
    <xMin value="-440"/>
    <yMin value="-305"/>
    <xMax value="1394"/>
    <yMax value="1159"/>
    <macStyle value="00000000 00000010"/>
    <lowestRecPPEM value="3"/>
    <fontDirectionHint value="2"/>
    <indexToLocFormat value="0"/>
    <glyphDataFormat value="0"/>
  </head>
          <CharString index="0">
            -29 callsubr
            155 171 153 209 45 hvcurveto
            -82 13 rmoveto
            -190 -40 -127 -122 -109 hhcurveto
            -110 -74 123 189 40 hvcurveto
            184 39 129 104 104 hhcurveto
            104 83 -104 -184 -39 hvcurveto
            return
          </CharString>
          <CharString index="1">
            598 hmoveto
            -95 694 rlineto
            -86 hlineto
            -391 11 callsubr
            113 202 rlineto
            268 hlineto
            28 -202 rlineto
            -35 258 rmoveto
            -230 hlineto
            78 140 97 174 16 45 rrcurveto
            1 hlineto
            -2 -41 8 -60 6 -51 rrcurveto
            return
          </CharString>
          <CharString index="2">
            -67 callsubr
            -99 -462 rlineto
            -133 -28 -93 -59 -74 hhcurveto
            -76 -63 62 129 27 hvcurveto
            99 463 -21 callsubr
            -98 -461 rlineto
            -144 -31 89 -105 124 hhcurveto
            124 130 105 144 31 hvcurveto
            return
          </CharString>
          <CharString index="3">
            hstemhm
            hintmask 11100000
            -106 callsubr
            return
          </CharString>
          <CharString index="4">
            rmoveto
            2 62 -57 -1 -51 -11 -44 -19 rlinecurve
            26 -28 -33 5 -23 hhcurveto
            -87 -81 -72 -84 -18 hvcurveto
            -12 -54 22 -41 1 -2 -23 -25 -16 -27 -6 -30 -8 -35 9 -25 8 -14 -59 -32 -17 -49 -4 -19 rrcurveto
            -73 -16 79 -60 117 hhcurveto
            118 103 60 74 16 hvcurveto
            138 29 -152 1 -42 hhcurveto
            -81 hlineto
            -15 -40 0 51 11 hvcurveto
            4 20 13 14 0 vvcurveto
            hintmask 0010100000110000
            -11 12 28 -17 41 hhcurveto
            83 84 70 86 18 hvcurveto
            10 48 -14 35 -7 12 rrcurveto
            3 hlineto
            3 43 3 15 hhcurveto
            32 3 -1 -3 27 hvcurveto
            -186 -94 rmoveto
            -87 -19 -58 -14 -26 hhcurveto
            hintmask 1000010011010000
            -34 -43 21 80 17 hvcurveto
            87 18 58 14 26 hhcurveto
            34 44 -21 -80 -17 hvcurveto
            7 -354 rmoveto
            -43 -9 -70 -34 -75 hhcurveto
            -76 -55 33 45 10 hvcurveto
            hintmask 0100000000101000
            5 1 13 62 69 hhcurveto
            81 hlineto
            24 101 0 -68 -14 hvcurveto
            return
          </CharString>
          <CharString index="5">
            8 40 -1 51 -32 47 -32 45 -33 10 -78 22 -44 12 -28 8 -19 31 -12 22 -5 21 6 27 rrcurveto
            56 12 61 61 88 hhcurveto
            44 55 -9 -54 46 hvcurveto
            31 80 rlineto
            26 -38 -43 23 -81 hhcurveto
            -129 -103 -95 -97 -21 hvcurveto
            -8 -38 2 -43 30 -44 29 -44 42 -12 53 -14 21 -6 37 -11 6 -3 52 -22 16 -51 -10 -48 rrcurveto
            -63 -14 -63 -67 -87 hhcurveto
            -30 -87 5 76 -67 hvcurveto
            -31 -79 rlineto
            -60 70 87 -10 45 hhcurveto
            123 108 97 110 24 hvcurveto
            return
          </CharString>
          <CharString index="6">
            42 callgsubr
            31 14 30 hhcurveto
            20 15 -2 -9 10 hvcurveto
            9 -7 2 -13 -3 -14 -2 -11 -8 -10 -12 24 callgsubr
          </CharString>
          <CharString index="7">
            rmoveto
            4 6 callsubr
            vlineto
            3 -23 rlineto
            1 hlineto
            25 22 31 -24 callgsubr
            8 -7 3 -13 -3 -14 -3 51 callgsubr
            -38 -19 -30 -35 -7 -37 -5 11 callgsubr
            5 20 5 28 24 16 43 25 rlinecurve
            5 2 18 11 13 17 4 19 rlinecurve
            endchar
          </CharString>
          <CharString index="8">
            rmoveto
            -97 134 rlineto
            -60 hlineto
            -155 -134 rlineto
            59 hlineto
            118 97 76 -97 rlineto
            return
          </CharString>
          <CharString index="9">
            hstemhm
            hintmask 11100000
            521 hmoveto
            -102 callgsubr
            return
          </CharString>
          <CharString index="10">
            364 124 rmoveto
            11 49 -21 33 -16 15 -27 26 -12 3 -78 17 -14 2 -46 11 9 45 rrcurveto
            57 12 63 0 14 hhcurveto
            65 36 -20 -15 24 hvcurveto
            26 65 rlineto
            28 -53 -46 2 -30 hhcurveto
            -71 -90 -25 -101 -22 hvcurveto
            -21 -101 105 -22 29 -6 44 -9 49 -10 -11 -50 rrcurveto
            -63 -13 -72 0 -13 hhcurveto
            -40 -53 11 36 -42 hvcurveto
            -27 -67 rlineto
            return
          </CharString>
          <CharString index="11">
            -100 callgsubr
            89 76 117 27 hvcurveto
            return
          </CharString>
          <CharString index="12">
            rmoveto
            -61 hlineto
            hintmask 00100000
            -93 callsubr
            hintmask 00010000
            -65 callsubr
            hintmask 00100000
            -41 -57 -38 -79 -19 hvcurveto
            61 hlineto
            return
          </CharString>
          <CharString index="13">
            574 -26 callsubr
            -78 hlineto
            -132 -617 -1 -1 -27 116 -115 465 -10 37 rlineto
            -123 0 callgsubr
            131 617 1 1 28 -116 115 -465 10 -37 rlineto
            return
          </CharString>
          <CharString index="14">
            -24 -5 -13 -32 -28 hhcurveto
            -15 -16 8 15 -17 hvcurveto
            return
          </CharString>
          <CharString index="15">
            34 vstem
            768 347 rmoveto
            192 41 -122 155 -192 hhcurveto
            -192 -188 -155 -192 -41 hvcurveto
            -192 -41 122 -155 192 hhcurveto
            192 188 155 192 41 hvcurveto
            -34 hmoveto
            -173 -37 -170 -140 -173 hhcurveto
            -173 -110 140 173 37 hvcurveto
            173 37 169 140 173 hhcurveto
            173 111 -140 -173 -37 hvcurveto
            return
          </CharString>
          <CharString index="16">
            rmoveto
            -89 172 rlineto
            -60 hlineto
            -161 -172 rlineto
            59 hlineto
            122 123 70 -123 rlineto
            return
          </CharString>
          <CharString index="17">
            400 40 rmoveto
            8 66 rlineto
            -33 -50 -54 -18 -54 hhcurveto
            -78 -37 68 93 20 hvcurveto
            72 15 53 91 100 hhcurveto
            55 28 -11 -31 40 hvcurveto
            24 62 1 7 -41 20 -12 4 rlinecurve
            12 -30 -42 0 -11 hhcurveto
            -130 -102 -113 -114 -24 hvcurveto
            -120 -26 65 -103 117 hhcurveto
            67 53 22 26 45 hvcurveto
            return
          </CharString>
          <CharString index="18">
            rmoveto
            -21 176 -67 callsubr
            36 -176 rlineto
            -96 hmoveto
            -21 176 -67 callsubr
            36 94 callgsubr
          </CharString>
          <CharString index="19">
            rmoveto
            -61 hlineto
            hintmask 00010000
            -93 callsubr
            hintmask 00001000
            -65 callsubr
            hintmask 00010000
            -41 -57 -38 -79 -19 hvcurveto
            61 hlineto
            hintmask 00001000
            24 return
          </CharString>
          <CharString index="20">
            -82 callgsubr
            144 288 rmoveto
            4 21 -5 20 -13 66 callgsubr
            22 31 -24 callgsubr
            8 -7 3 -13 -3 -14 -3 51 callgsubr
            -38 21 callsubr
            -5 11 callgsubr
            5 20 6 28 23 16 43 25 rlinecurve
            5 2 18 11 13 17 4 19 rlinecurve
            endchar
          </CharString>
          <CharString index="21">
            rlineto
            76 hlineto
            51 242 rlineto
            63 14 39 72 68 hhcurveto
            88 -9 -59 -34 -8 hvcurveto
            -60 -284 rlineto
            return
          </CharString>
          <CharString index="22">
            hstemhm
            463 79 -63 79 hintmask 00100010
            542 432 rmoveto
            16 78 rlineto
            -79 hlineto
            hintmask 00100100
            -16 -79 rlineto
            24 hlineto
            -42 -35 rlineto
            hintmask 11000100
            -91 callgsubr
            return
          </CharString>
          <CharString index="23">
            752 346 rmoveto
            36 170 -74 90 -25 30 69 92 rcurveline
            -50 30 -63 -85 rlineto
            16 -25 -44 21 -60 hhcurveto
            -169 -178 -159 -205 -43 hvcurveto
            -24 -113 21 -106 65 -69 -68 -92 rcurveline
            49 -30 54 72 rlineto
            8 10 2 1 0 vvcurveto
            0 3 0 11 -6 vhcurveto
            -21 37 42 -8 36 76 callsubr
            -149 271 rmoveto
            -369 -497 -50 82 16 98 10 46 rlinecurve
            195 41 136 108 116 hhcurveto
            45 34 -17 -15 21 hvcurveto
            65 -271 rmoveto
            -199 -43 -137 -102 -113 hhcurveto
            -39 -33 12 20 -29 hvcurveto
            369 496 48 -77 -12 -98 -11 -52 rlinecurve
            return
          </CharString>
          <CharString index="24">
            319 29 rmoveto
            -3 59 rlineto
            -21 -29 -31 -12 -31 hhcurveto
            -44 10 56 25 5 hvcurveto
            50 236 rlineto
            130 hlineto
            12 58 rlineto
            -130 hlineto
            27 123 rlineto
            -71 hlineto
            -27 -123 rlineto
            -79 hlineto
            -12 -58 rlineto
            return
          </CharString>
          <CharString index="25">
            385 372 rmoveto
            14 66 -64 -1 -67 -32 -47 -52 rlinecurve
            17 80 rlineto
            -71 hlineto
            -92 -433 rlineto
            74 hlineto
            45 213 20 94 83 63 88 2 rlinecurve
            return
          </CharString>
          <CharString index="26">
            409 hmoveto
            62 292 rlineto
            63 13 3 83 -113 hhcurveto
            -63 -47 -31 -34 -37 hvcurveto
            69 321 rlineto
            -74 hlineto
            -148 -694 -86 callsubr
            return
          </CharString>
          <CharString index="27">
            rmoveto
            -31 -6 -27 -8 -22 hhcurveto
            -20 -25 7 32 6 hvcurveto
            31 7 27 8 22 hhcurveto
            20 25 -7 -32 -7 hvcurveto
            58 hmoveto
            46 10 -36 42 -60 hhcurveto
            -60 -54 -42 -46 -10 hvcurveto
            -46 -9 -5 callgsubr
            9 hvcurveto
            return
          </CharString>
          <CharString index="28">
            408 85 callgsubr
            -66 -306 rlineto
            26 -25 -46 24 -56 hhcurveto
            -91 -93 -99 -124 -26 hvcurveto
            -124 -27 50 -99 89 hhcurveto
            69 54 37 21 29 hvcurveto
            -11 -50 rlineto
            28 134 rmoveto
            -2 -14 -4 -15 -36 -27 rrcurveto
            -17 -24 -26 -8 -23 hhcurveto
            -54 -62 40 121 25 hvcurveto
            126 27 88 37 55 hhcurveto
            37 26 -18 -30 15 hvcurveto
            return
          </CharString>
          <CharString index="29">
            -99 callsubr
            endchar
          </CharString>
          <CharString index="30">
            16 75 -67 callsubr
            return
          </CharString>
          <CharString index="31">
            12 rrcurveto
            14 -16 -23 5 -28 hhcurveto
            -33 return
          </CharString>
          <CharString index="32">
            769 694 rmoveto
            -86 hlineto
            -207 -242 -16 -19 -45 -52 -22 -29 rlinecurve
            -32 79 -112 263 rlineto
            -98 hlineto
            179 -416 rlineto
            return
          </CharString>
          <CharString index="33">
            -1 59 -24 -9 -24 -6 -22 1 rlinecurve
            -28 2 -22 6 5 30 return
          </CharString>
          <CharString index="34">
            -20 103 callsubr
            14 -13 callgsubr
            -63 76 hintmask 0110001000010000
            -59 callsubr
            hintmask 0001000010000000
            -4 569 rmoveto
            -77 callsubr
            hintmask 0001000100100000
            -60 callsubr
            hintmask 0001110001000000
            -16 -75 rlineto
            return
          </CharString>
          <CharString index="35">
            rmoveto
            -31 -6 -27 -8 -22 hhcurveto
            -20 -26 7 32 7 hvcurveto
            31 7 26 8 22 hhcurveto
            20 26 -7 -32 -7 hvcurveto
            58 hmoveto
            46 10 -36 42 -60 hhcurveto
            -60 -54 -42 -46 -10 hvcurveto
            -46 -10 -5 callgsubr
            10 hvcurveto
            return
          </CharString>
          <CharString index="36">
            161 -60 rmoveto
            104 490 rlineto
            -74 hlineto
            -106 -499 rlineto
            -60 -12 -45 -10 -27 hhcurveto
            -27 -20 10 21 -15 hvcurveto
            -33 -61 rlineto
            -20 28 36 -14 42 hhcurveto
            63 67 54 89 19 hvcurveto
            return
          </CharString>
          <CharString index="37">
            409 hmoveto
            62 292 rlineto
            63 13 3 83 -113 hhcurveto
            -64 -49 -33 -34 -35 hvcurveto
            13 62 rlineto
            -73 hlineto
            return
          </CharString>
          <CharString index="38">
            rmoveto
            -61 hlineto
            hintmask 10000000
            -93 callsubr
            hintmask 01000000
            -65 callsubr
            hintmask 10000000
            -41 -57 -38 -79 -19 hvcurveto
            61 hlineto
            hintmask 01000000
            24 return
          </CharString>
          <CharString index="39">
            729 -26 callsubr
            -116 hlineto
            -183 -321 -78 -141 -13 -26 -44 -81 -13 -32 rlinecurve
            -1 hlineto
            1 20 -2 21 -5 51 -10 89 rcurveline
            -58 420 rlineto
            -117 0 callgsubr
            130 613 rlineto
            1 hlineto
            0 0 -45 24 -175 vhcurveto
            51 -377 rlineto
            74 hlineto
            191 335 71 131 17 30 41 74 12 29 rlinecurve
            1 hlineto
            -131 -615 rlineto
            return
          </CharString>
          <CharString index="40">
            rlineto
            -76 hlineto
            return
          </CharString>
          <CharString index="41">
            rmoveto
            -149 122 93 callsubr
            171 -122 rlineto
            endchar
          </CharString>
          <CharString index="42">
            19 -23 -16 14 -27 hhcurveto
            return
          </CharString>
          <CharString index="43">
            149 rmoveto
            116 545 rlineto
            -82 hlineto
            -116 -542 rlineto
            -48 -10 -32 -59 -90 hhcurveto
            -51 -38 24 30 -21 hvcurveto
            -28 -73 rlineto
            -33 55 55 -9 42 hhcurveto
            97 80 56 109 23 hvcurveto
            return
          </CharString>
          <CharString index="44">
            -16 -75 rlineto
            240 -40 callsubr
            return
          </CharString>
          <CharString index="45">
            769 hmoveto
            15 69 -187 -1 rlineto
            -76 -20 0 -1 -11 hvcurveto
            56 263 rlineto
            254 hlineto
            13 61 rlineto
            -254 hlineto
            51 239 rlineto
            101 hlineto
            12 12 -1 12 hhcurveto
            143 hlineto
            14 65 rlineto
            -465 hlineto
            -413 11 callsubr
            132 222 rlineto
            206 hlineto
            -47 -222 rlineto
            59 278 rmoveto
            -184 hlineto
            209 352 rlineto
            50 hlineto
            return
          </CharString>
          <CharString index="46">
            -84 -89 callgsubr
            return
          </CharString>
          <CharString index="47">
            -16 -75 rlineto
            216 -40 callsubr
            return
          </CharString>
          <CharString index="48">
            409 hmoveto
            73 callgsubr
            -99 callgsubr
            hintmask 1000000000000000
            -85 callgsubr
            return
          </CharString>
          <CharString index="49">
            41 57 38 79 19 hvcurveto
            endchar
          </CharString>
          <CharString index="50">
            -74 callsubr
            8 return
          </CharString>
          <CharString index="51">
            625 21 -23 callgsubr
            return
          </CharString>
          <CharString index="52">
            21 -5 20 -13 -76 callsubr
            return
          </CharString>
          <CharString index="53">
            rmoveto
            -61 hlineto
            hintmask 01000000
            -93 callsubr
            hintmask 00100000
            -65 callsubr
            hintmask 01000000
            -41 -57 -38 -79 -19 hvcurveto
            61 hlineto
            hintmask 00100000
            -54 callgsubr
            hintmask 01000000
            -64 callgsubr
            hintmask 00100000
            -58 callsubr
          </CharString>
          <CharString index="54">
            222 rmoveto
            124 27 -38 110 -91 hhcurveto
            -66 -65 -35 -44 -44 hvcurveto
            141 40 86 93 95 hhcurveto
            hintmask 00100000
            26 33 -4 -17 35 hvcurveto
            14 62 rlineto
            hintmask 10011000
            17 -39 -29 3 -28 hhcurveto
            -130 -150 -136 -215 -46 hvcurveto
            -275 -58 102 -62 82 hhcurveto
            45 48 14 50 53 hvcurveto
            hintmask 00000100
            55 53 27 44 16 77 rrcurveto
            -79 hmoveto
            hintmask 11001000
            -8 -39 -8 -39 -32 -40 rrcurveto
            -31 -25 -31 -27 -48 hhcurveto
            -95 12 133 40 5 hvcurveto
            1 8 1 5 5 15 rrcurveto
            78 16 60 70 73 hhcurveto
            47 19 -25 -31 11 hvcurveto
            hintmask 00000100
            13 -39 -7 -37 -9 -41 rrcurveto
            endchar
          </CharString>
          <CharString index="55">
            -17 -80 rlineto
            25 hlineto
            -53 -125 rlineto
            40 hlineto
            return
          </CharString>
          <CharString index="56">
            703 -96 callsubr
            return
          </CharString>
          <CharString index="57">
            222 rmoveto
            124 27 -38 110 -91 hhcurveto
            -66 -65 -35 -44 -44 hvcurveto
            141 40 86 93 95 hhcurveto
            hintmask 00100000
            26 33 -4 -17 35 hvcurveto
            14 62 rlineto
            hintmask 11011100
            17 -39 -29 3 -28 hhcurveto
            -130 -150 -136 -215 -46 hvcurveto
            -275 -58 102 -62 82 hhcurveto
            45 48 14 50 53 hvcurveto
            55 53 27 44 16 77 rrcurveto
            -79 hmoveto
            -8 -39 -8 -39 -32 -40 rrcurveto
            -31 -25 -31 -27 -48 hhcurveto
            -95 12 133 40 5 hvcurveto
            1 8 1 5 5 15 rrcurveto
            78 16 60 70 73 hhcurveto
            47 19 -25 -31 11 hvcurveto
            13 -39 -7 -37 -9 -41 rrcurveto
            endchar
          </CharString>
          <CharString index="58">
            140 rmoveto
            290 61 -115 47 -67 hhcurveto
            -67 -49 -30 -48 -47 hvcurveto
            -56 -55 -18 -49 -12 -57 -15 -68 3 -42 18 -48 rrcurveto
            -62 25 32 -13 39 hhcurveto
            59 65 29 50 51 hvcurveto
            -135 -36 -82 -98 -88 hhcurveto
            -36 -26 11 27 -24 hvcurveto
            -42 -53 rlineto
            -24 23 31 -23 61 hhcurveto
            121 145 134 217 46 hvcurveto
            -67 76 rmoveto
            -84 -18 -62 -66 -70 hhcurveto
            -46 -19 24 31 -11 hvcurveto
            -14 39 7 38 9 40 8 39 9 43 37 43 rrcurveto
            31 28 30 22 45 hhcurveto
            92 -13 -135 -41 -8 hvcurveto
            -7 -3 -13 -1 -4 vhcurveto
            endchar
          </CharString>
          <CharString index="59">
            561 0 68 261 61 237 65 return
          </CharString>
          <CharString index="60">
            -20 hstemhm
            hintmask 11100000
            -107 callgsubr
            hintmask 00011000
            57 callsubr
            return
          </CharString>
          <CharString index="61">
            -93 callgsubr
            -37 154 40 callgsubr
            30 -24 callgsubr
            9 -7 2 -13 -3 -14 -2 -11 -9 -10 -11 24 callgsubr
          </CharString>
          <CharString index="62">
            -96 callsubr
            -37 154 -12 callsubr
            19 11 12 17 4 19 rlinecurve
            endchar
          </CharString>
          <CharString index="63">
            678 0 56 259 64 259 56 hstemhm
            156 82 -68 82 363 82 cntrmask 11100000
            hintmask 11101000
            87 callsubr
            -67 -315 rlineto
            -76 101 callgsubr
            hintmask 11110100
            76 hlineto
            -67 -315 39 callsubr
            55 259 rlineto
            92 hlineto
            14 64 rlineto
            hintmask 11101100
            -92 hlineto
            55 259 96 callsubr
          </CharString>
          <CharString index="64">
            -20 hstemhm
            hintmask 11100000
            -106 callgsubr
            hintmask 00011000
            62 callgsubr
            return
          </CharString>
          <CharString index="65">
            hvcurveto
            hintmask 00100000
            -64 callgsubr
            hintmask 00010000
            41 return
          </CharString>
          <CharString index="66">
            3 -23 rlineto
            1 hlineto
            25 return
          </CharString>
          <CharString index="67">
            hmoveto
            -77 callsubr
            return
          </CharString>
          <CharString index="68">
            -34 callgsubr
            endchar
          </CharString>
          <CharString index="69">
            470 -204 55 145 73 57 55 -55 59 195 58 -55 55 return
          </CharString>
          <CharString index="70">
            484 -8 58 0 58 322 -20 return
          </CharString>
          <CharString index="71">
            148 hmoveto
            148 694 -24 callsubr
            return
          </CharString>
          <CharString index="72">
            327 rmoveto
            12 57 21 106 -23 82 rrcurveto
            79 -25 -61 21 -47 hhcurveto
            -68 -67 -40 -64 -43 hvcurveto
            -47 -67 -23 -69 -22 -105 -16 -72 -16 -88 20 -77 rrcurveto
            -85 23 65 -21 47 hhcurveto
            62 67 33 69 48 hvcurveto
            51 72 22 79 20 90 rrcurveto
            -74 11 rmoveto
            -93 -20 -42 -200 -121 hhcurveto
            -76 -5 87 29 -1 hvcurveto
            -1 50 8 48 17 79 13 62 15 70 31 55 rrcurveto
            64 36 45 22 38 hhcurveto
            74 8 -74 -26 3 hvcurveto
            3 -53 -13 -62 -12 -58 rrcurveto
            endchar
          </CharString>
          <CharString index="73">
            -81 callgsubr
            hintmask 10010000
            -53 callgsubr
          </CharString>
          <CharString index="74">
            hvcurveto
            -1 vlineto
            -41 callsubr
            return
          </CharString>
          <CharString index="75">
            581 72 callgsubr
            50 34 52 26 rrcurveto
            23 hlineto
            -95 694 rlineto
            -86 hlineto
            -391 11 callsubr
            113 202 rlineto
            268 hlineto
            28 -202 -56 -28 -50 -48 -8 -51 rlinecurve
            -68 callgsubr
            -105 445 rmoveto
            -230 hlineto
            78 140 97 174 16 45 rrcurveto
            1 hlineto
            -2 -41 8 -60 6 -51 rrcurveto
            return
          </CharString>
          <CharString index="76">
            -61 rmoveto
            -61 hlineto
            -80 -19 -57 -47 -50 hhcurveto
            -54 -34 49 78 15 -84 callgsubr
            88 76 117 28 hvcurveto
            endchar
          </CharString>
          <CharString index="77">
            -221 -21 112 72 return
          </CharString>
          <CharString index="78">
            -79 callgsubr
            -209 -45 107 -153 155 hhcurveto
            return
          </CharString>
          <CharString index="79">
            693 -16 63 600 63 return
          </CharString>
          <CharString index="80">
            -82 callgsubr
            125 306 rmoveto
            -61 hlineto
            hintmask 00001000
            -24 -6 -12 -32 -28 hhcurveto
            -15 -17 8 15 -16 112 callsubr
            -58 -38 -79 -18 26 callsubr
          </CharString>
          <CharString index="81">
            hmoveto
            12 callgsubr
            return
          </CharString>
          <CharString index="82">
            1 18 callgsubr
            hintmask 11001000
            -52 callsubr
            251 126 18 callgsubr
            hintmask 10010000
            -52 callsubr
            endchar
          </CharString>
          <CharString index="83">
            rlineto
            -74 -89 callgsubr
            return
          </CharString>
          <CharString index="84">
            714 346 rmoveto
            return
          </CharString>
          <CharString index="85">
            hmoveto
            12 55 rlineto
            -321 hlineto
            177 89 75 38 108 59 19 90 rlinecurve
            21 96 -90 48 -88 2 rrcurveto
            -8 hlineto
            -69 -73 -23 -72 -57 hvcurveto
            -3 -4 -5 -5 -1 -5 rrcurveto
            -1 vlineto
            -6 18 -20 12 -9 vhcurveto
            63 34 60 31 60 hhcurveto
            49 89 -15 -75 -7 hvcurveto
            -1 -7 -18 -85 -105 -60 -80 -41 rlinecurve
            -154 -79 -11 -6 -11 -2 -3 -13 rlinecurve
            -9 -43 rlineto
            endchar
          </CharString>
          <CharString index="86">
            rlineto
            -84 hlineto
            return
          </CharString>
          <CharString index="87">
            rlineto
            -69 hlineto
            -12 -58 rlineto
            69 hlineto
            -79 -372 rlineto
            74 hlineto
            79 372 rlineto
            return
          </CharString>
          <CharString index="88">
            61 166 55 107 61 return
          </CharString>
          <CharString index="89">
            287 43 callgsubr
            hstem
            94 74 5 74 vstem
            458 118 callsubr
            5 -22 -28 3 -22 hhcurveto
            -93 -81 -76 -99 -21 hvcurveto
            -21 -97 -20 callsubr
            101 hlineto
            12 58 rlineto
            -103 hlineto
            28 128 rlineto
            71 15 56 12 31 hhcurveto
            10 28 0 -13 33 hvcurveto
            endchar
          </CharString>
          <CharString index="90">
            hmoveto
            14 68 rlineto
            -170 hlineto
            -12 -12 -1 -12 hhcurveto
            -100 1 hlineto
            173 144 34 29 50 35 36 35 rlinecurve
            35 34 48 48 14 70 rrcurveto
            110 24 -53 99 -126 hhcurveto
            -99 -70 -62 -97 -48 hvcurveto
            28 -54 rlineto
            91 41 43 58 78 hhcurveto
            86 33 -70 -77 -16 hvcurveto
            -20 -92 -85 -71 -64 -53 rrcurveto
            hintmask 10000000
            -211 -181 -14 -64 rlineto
            endchar
          </CharString>
          <CharString index="91">
            -20 hstemhm
            214 7 callgsubr
            hintmask 10001000
            290 466 rmoveto
            -77 callsubr
            hintmask 10010010
            -63 callsubr
            hintmask 10000100
            -16 -75 rlineto
            return
          </CharString>
          <CharString index="92">
            rrcurveto
            -68 callgsubr
            return
          </CharString>
          <CharString index="93">
            rlineto
            -61 callsubr
            84 hlineto
            return
          </CharString>
          <CharString index="94">
            470 -8 62 326 62 return
          </CharString>
          <CharString index="95">
            rmoveto
            5 21 -5 56 callgsubr
            -25 hvcurveto
            -1 -1 127 callgsubr
            31 14 30 hhcurveto
            20 15 -2 -9 10 hvcurveto
            9 -7 2 -13 -3 -14 -2 -11 -8 -10 -12 -6 -38 34 callgsubr
            23 16 44 25 rlinecurve
            4 2 return
          </CharString>
          <CharString index="96">
            -118 -25 46 -83 67 hhcurveto
            69 79 85 116 25 hvcurveto
            return
          </CharString>
          <CharString index="97">
            77 hlineto
            -54 -253 rlineto
            -57 -12 -2 -70 66 hhcurveto
            return
          </CharString>
          <CharString index="98">
            487 214 rmoveto
            return
          </CharString>
          <CharString index="99">
            rmoveto
            11 3 -8 7 -8 hhcurveto
            -11 -6 -8 -10 -8 hvcurveto
            -568 -752 -3 -4 -6 -6 -1 -6 rlinecurve
            -11 -2 7 -7 9 hhcurveto
            9 3 4 14 11 hvcurveto
            return
          </CharString>
          <CharString index="100">
            120 26 38 20 21 hhcurveto
            37 4 -73 -67 -14 hvcurveto
            return
          </CharString>
          <CharString index="101">
            -33 50 53 -10 46 hhcurveto
            123 47 75 57 12 hvcurveto
            return
          </CharString>
          <CharString index="102">
            198 934 rlineto
            14 3 4 19 -20 hhcurveto
            -20 -4 -19 -14 -3 hvcurveto
            -198 -934 rlineto
            -14 -3 -4 -19 20 hhcurveto
            20 4 19 14 3 hvcurveto
            return
          </CharString>
          <CharString index="103">
            -23 callsubr
            24 116 -22 100 -50 65 72 45 rcurveline
            return
          </CharString>
          <CharString index="104">
            -96 callsubr
            endchar
          </CharString>
          <CharString index="105">
            rmoveto
            13 64 rlineto
            -339 hlineto
            -13 -64 rlineto
            endchar
          </CharString>
          <CharString index="106">
            rlineto
            76 hlineto
            51 240 rlineto
            -32 26 40 -21 48 hhcurveto
            93 101 96 128 27 hvcurveto
            -76 hmoveto
            -99 -21 -82 -64 -67 hhcurveto
            -20 -20 5 17 -16 hvcurveto
            -22 24 3 15 3 14 42 197 rcurveline
            12 11 42 38 55 hhcurveto
            70 40 -72 -87 -18 hvcurveto
            endchar
          </CharString>
          <CharString index="107">
            hmoveto
            13 61 rlineto
            -91 hlineto
            88 416 rlineto
            -88 hlineto
            -326 -416 -13 -61 rlineto
            hintmask 01001000
            247 hlineto
            hintmask 10010000
            -41 -195 rlineto
            79 hlineto
            hintmask 01001000
            41 195 rlineto
            -63 61 rmoveto
            -173 hlineto
            hintmask 01000010
            80 102 156 198 16 70 rrcurveto
            endchar
          </CharString>
          <CharString index="108">
            hstemhm
            11 71 34 71 -22 71 114 71 -64 71 return
          </CharString>
          <CharString index="109">
            rmoveto
            116 25 -44 85 -68 hhcurveto
            -67 -81 -83 -118 -26 hvcurveto
            -118 -25 47 -83 67 hhcurveto
            69 79 85 116 24 hvcurveto
            return
          </CharString>
          <CharString index="110">
            rmoveto
            -11 17 rlineto
            -41 -57 -60 -30 -51 hhcurveto
            -40 -25 17 20 -31 hvcurveto
            17 -25 -28 17 -40 hhcurveto
            hintmask 00100000
            -25 -27 -8 -10 -25 hvcurveto
            hintmask 01000000
            -22 -10 -22 -11 -20 -14 -63 -44 rcurveline
            hintmask 10010000
            10 -17 rlineto
            41 58 59 30 51 hhcurveto
            40 return
          </CharString>
          <CharString index="111">
            rmoveto
            -61 hlineto
            -105 -168 rlineto
            68 hlineto
            endchar
          </CharString>
          <CharString index="112">
            171 rmoveto
            13 61 rlineto
            -91 hlineto
            90 424 rlineto
            -88 hlineto
            -328 -424 -13 -61 rlineto
            247 hlineto
            -36 -171 rlineto
            79 hlineto
            36 171 rlineto
            -63 61 rmoveto
            -173 hlineto
            80 102 158 206 16 70 rrcurveto
            endchar
          </CharString>
          <CharString index="113">
            -55 callsubr
            -35 -16 -26 -25 hvcurveto
            -1 return
          </CharString>
          <CharString index="114">
            -24 -9 -24 -6 -22 1 91 callsubr
            -74 hlineto
            -91 -430 rlineto
            11 -52 callgsubr
            return
          </CharString>
          <CharString index="115">
            134 callsubr
            -183 101 callgsubr
            113 -43 0 113 hhcurveto
            endchar
          </CharString>
          <CharString index="116">
            -92 -433 rlineto
            76 hlineto
            51 242 rlineto
            59 13 38 76 71 hhcurveto
            91 -13 -64 -29 -7 hvcurveto
            -60 -284 62 callsubr
            return
          </CharString>
          <CharString index="117">
            10 callgsubr
            -20 return
          </CharString>
          <CharString index="118">
            -44 callgsubr
            76 hlineto
            return
          </CharString>
          <CharString index="119">
            hmoveto
            10 48 rlineto
            -117 hlineto
            91 429 rlineto
            -8 hlineto
            -17 -26 -21 -6 -21 hvcurveto
            -13 -40 -40 -3 -38 hhcurveto
            -10 -48 rlineto
            42 41 5 13 43 hvcurveto
            -76 -356 rlineto
            -117 hlineto
            -10 -48 rlineto
            endchar
          </CharString>
          <CharString index="120">
            504 65 callgsubr
            return
          </CharString>
          <CharString index="121">
            261 79 callsubr
            194 61 callgsubr
            hintmask 11010000
            17 80 rlineto
            -25 hlineto
            endchar
          </CharString>
          <CharString index="122">
            25 371 -99 callsubr
            return
          </CharString>
          <CharString index="123">
            103 callsubr
            183 76 return
          </CharString>
          <CharString index="124">
            hmoveto
            12 58 rlineto
            -118 hlineto
            131 614 rlineto
            -19 hlineto
            -66 -56 -65 -8 -64 -2 -13 -58 rcurveline
            30 1 47 2 52 21 -110 -514 rcurveline
            -118 hlineto
            -12 -58 rlineto
            endchar
          </CharString>
          <CharString index="125">
            261 510 -21 125 80 hstemhm
            221 129 callsubr
            301 615 18 callgsubr
            hintmask 11100000
            -52 callsubr
            endchar
          </CharString>
          <CharString index="126">
            21 82 callsubr
            return
          </CharString>
          <CharString index="127">
            -9 callsubr
            15 69 -15 64 -39 45 92 121 rcurveline
            -48 30 -88 -118 rlineto
            return
          </CharString>
          <CharString index="128">
            -19 -29 -35 -8 -37 return
          </CharString>
          <CharString index="129">
            847 -95 callsubr
            return
          </CharString>
          <CharString index="130">
            670 hmoveto
            62 292 rlineto
            67 14 0 79 -112 hhcurveto
            -75 -55 -47 -29 -26 hvcurveto
            53 -7 -37 23 -60 hhcurveto
            -68 -51 -39 -28 -29 hvcurveto
            13 62 rlineto
            -73 hlineto
            return
          </CharString>
          <CharString index="131">
            17 80 rlineto
            -80 hlineto
            return
          </CharString>
          <CharString index="132">
            236 73 callsubr
            return
          </CharString>
          <CharString index="133">
            hvcurveto
            61 hlineto
            hintmask 00000100
            -54 callgsubr
            hintmask 00001000
            -64 callgsubr
            hintmask 00000100
            -58 callsubr
          </CharString>
          <CharString index="134">
            597 557 rmoveto
            99 21 -130 28 -66 hhcurveto
            -80 -124 -39 -88 -19 hvcurveto
            60 hlineto
            57 17 88 19 51 hhcurveto
            53 77 -20 -56 -8 hvcurveto
            endchar
          </CharString>
          <CharString index="135">
            hstemhm
            237 73 callsubr
            17 79 -63 79 return
          </CharString>
          <CharString index="136">
            43 callsubr
            694 -20 return
          </CharString>
          <CharString index="137">
            36 callsubr
            76 64 hstemhm
            87 84 64 83 callgsubr
            hintmask 00100000
            return
          </CharString>
          <CharString index="138">
            63 317 58 123 -20 hstemhm
            173 73 0 73 return
          </CharString>
          <CharString index="139">
            -8 -15 17 hvcurveto
            return
          </CharString>
          <CharString index="140">
            -11 1 -19 4 -18 5 rrcurveto
            6 -18 -27 8 -21 hhcurveto
            -35 -8 -28 -5 -1 hvcurveto
            -13 -3 1 -21 31 hhcurveto
            21 31 8 6 22 hvcurveto
            return
          </CharString>
          <CharString index="141">
            25 rlinecurve
            4 2 19 11 12 17 4 19 rlinecurve
            endchar
          </CharString>
          <CharString index="142">
            606 21 80 callsubr
            return
          </CharString>
          <CharString index="143">
            259 -12 callgsubr
            return
          </CharString>
          <CharString index="144">
            24 5 13 32 28 hhcurveto
            15 16 -8 -15 17 -42 callsubr
            57 38 79 19 hvcurveto
            endchar
          </CharString>
          <CharString index="145">
            -7 -47 -15 callgsubr
            return
          </CharString>
          <CharString index="146">
            rlineto
            246 hlineto
            164 159 154 187 39 hvcurveto
            -82 hmoveto
            -167 -35 -120 -118 -135 hhcurveto
            -142 hlineto
            return
          </CharString>
          <CharString index="147">
            rmoveto
            4 callgsubr
            return
          </CharString>
          <CharString index="148">
            hlineto
            141 302 5 10 2 5 1 3 rlinecurve
            10 2 -6 8 -10 hhcurveto
            -14 -6 -14 -8 -4 hvcurveto
            -147 -316 rlineto
            return
          </CharString>
          <CharString index="149">
            593 144 rmoveto
            -76 hlineto
            -42 -9 -28 -42 -37 hhcurveto
            -27 -26 6 7 -24 hvcurveto
            -48 12 -46 13 -51 1 37 47 32 return
          </CharString>
          <CharString index="150">
            -30 callsubr
            79 -21 return
          </CharString>
          <CharString index="151">
            63 0 63 6 63 195 60 return
          </CharString>
          <CharString index="152">
            -21 176 -20 return
          </CharString>
          <CharString index="153">
            rmoveto
            hintmask 10000100
            88 callgsubr
            hintmask 00010000
            return
          </CharString>
          <CharString index="154">
            -16 62 349 61 134 62 -41 61 hstemhm
            return
          </CharString>
          <CharString index="155">
            186 rmoveto
            12 58 rlineto
            -250 hlineto
            return
          </CharString>
          <CharString index="156">
            80 -63 80 86 80 -63 80 return
          </CharString>
          <CharString index="157">
            -12 callgsubr
            hstem
            return
          </CharString>
          <CharString index="158">
            rmoveto
            -77 callsubr
            hintmask 00011001
            -60 callsubr
            hintmask 00010010
            -16 -75 rlineto
            endchar
          </CharString>
          <CharString index="159">
            rmoveto
            -77 callsubr
            hintmask 00110010
            -60 callsubr
            hintmask 00100100
            -16 -75 rlineto
            endchar
          </CharString>
          <CharString index="160">
            -20 hstem
            58 callgsubr
            return
          </CharString>
          <CharString index="161">
            hstem
            34 76 310 76 vstem
            496 216 rmoveto
            118 25 -38 104 -86 hhcurveto
            -50 -64 -18 -36 -52 hvcurveto
            return
          </CharString>
          <CharString index="162">
            451 56 callsubr
            61 141 51 138 59 return
          </CharString>
          <CharString index="163">
            -200 84 108 return
          </CharString>
          <CharString index="164">
            141 326 -82 callgsubr
            return
          </CharString>
          <CharString index="165">
            490 466 -99 callsubr
            return
          </CharString>
          <CharString index="166">
            62 93 64 157 61 171 64 hstem
            return
          </CharString>
          <CharString index="167">
            50 49 14 23 49 hvcurveto
            return
          </CharString>
          <CharString index="168">
            89 298 -82 callgsubr
            return
          </CharString>
          <CharString index="169">
            rlineto
            76 hlineto
            51 242 rlineto
            59 13 38 76 71 hhcurveto
            91 -13 -64 -29 -7 hvcurveto
            -60 -284 rlineto
            return
          </CharString>
          <CharString index="170">
            hlineto
            -515 -654 rlineto
            39 hlineto
            return
          </CharString>
          <CharString index="171">
            45 callsubr
            hstemhm
            return
          </CharString>
          <CharString index="172">
            -66 callgsubr
            rrcurveto
            return
          </CharString>
          <CharString index="173">
            -9 callsubr
            128 28 -74 100 -112 35 callgsubr
            return
          </CharString>
          <CharString index="174">
            219 rmoveto
            -50 218 rlineto
            -61 hlineto
            35 -218 -128 -219 rlineto
            61 hlineto
            endchar
          </CharString>
          <CharString index="175">
            809 0 68 154 56 52 61 238 65 return
          </CharString>
          <CharString index="176">
            hstemhm
            91 callgsubr
            return
          </CharString>
          <CharString index="177">
            21 112 callgsubr
            return
          </CharString>
          <CharString index="178">
            rmoveto
            9 41 rlineto
            -123 hlineto
            -8 -9 -1 -8 hhcurveto
            -72 1 hlineto
            120 86 24 18 return
          </CharString>
          <CharString index="179">
            vstem
            562 40 rmoveto
            4 33 1 9 1 16 1 10 rlinecurve
            -47 -70 -45 -13 -71 hhcurveto
            return
          </CharString>
          <CharString index="180">
            84 307 76 return
          </CharString>
          <CharString index="181">
            337 420 86 callgsubr
            -17 -80 rlineto
            102 -570 rmoveto
            -9 62 return
          </CharString>
          <CharString index="182">
            rmoveto
            13 3 -1 21 -31 hhcurveto
            -21 -31 -8 -6 -22 hvcurveto
            -4 -1 -26 -7 -20 -2 return
          </CharString>
          <CharString index="183">
            hhcurveto
            167 179 155 207 44 hvcurveto
            return
          </CharString>
          <CharString index="184">
            731 -43 -21 48 61 604 61 48 -20 return
          </CharString>
          <CharString index="185">
            483 -8 58 381 79 return
          </CharString>
          <CharString index="186">
            489 80 125 -20 hstemhm
            return
          </CharString>
          <CharString index="187">
            -21 317 61 260 56 return
          </CharString>
          <CharString index="188">
            575 0 66 565 63 return
          </CharString>
          <CharString index="189">
            -21 430 -20 return
          </CharString>
          <CharString index="190">
            418 rmoveto
            10 47 -32 40 -50 15 47 19 40 38 9 43 rrcurveto
            50 10 return
          </CharString>
          <CharString index="191">
            -16 62 278 61 226 61 return
          </CharString>
          <CharString index="192">
            62 154 61 350 61 hstem
            return
          </CharString>
          <CharString index="193">
            61 -5 61 hstemhm
            return
          </CharString>
          <CharString index="194">
            697 341 rmoveto
            193 42 -92 160 -164 hhcurveto
            -246 hlineto
            return
          </CharString>
          <CharString index="195">
            hstemhm
            248 -13 callgsubr
            return
          </CharString>
          <CharString index="196">
            324 569 rmoveto
            -77 callsubr
            return
          </CharString>
          <CharString index="197">
            104 callgsubr
            hstemhm
            return
          </CharString>
          <CharString index="198">
            113 callsubr
            91 430 rcurveline
            return
          </CharString>
          <CharString index="199">
            hhcurveto
            63 29 -63 -69 -15 hvcurveto
            76 hlineto
            111 24 -55 97 -105 hhcurveto
            return
          </CharString>
          <CharString index="200">
            rlineto
            -111 hlineto
            return
          </CharString>
          <CharString index="201">
            45 51 -8 -43 52 hvcurveto
            31 80 rlineto
            24 -53 -50 11 -61 hhcurveto
            return
          </CharString>
          <CharString index="202">
            21 -21 372 58 131 80 -26 80 -54 61 hstemhm
            94 74 return
          </CharString>
          <CharString index="203">
            rlineto
            142 hlineto
            134 69 -123 -174 -37 hvcurveto
            endchar
          </CharString>
          <CharString index="204">
            hvcurveto
            120 26 38 20 21 hhcurveto
            37 return
          </CharString>
          <CharString index="205">
            320 21 -21 416 22 return
          </CharString>
          <CharString index="206">
            hstemhm
            89 82 211 79 return
          </CharString>
          <CharString index="207">
            470 487 -21 return
          </CharString>
          <CharString index="208">
            hstemhm
            89 82 48 -8 callgsubr
            61 79 118 82 -79 79 return
          </CharString>
          <CharString index="209">
            hhcurveto
            -41 -53 17 44 -23 hvcurveto
            -9 -21 -1 -1 -6 -15 rrcurveto
            return
          </CharString>
          <CharString index="210">
            hstemhm
            165 76 return
          </CharString>
          <CharString index="211">
            366 -228 -21 998 -20 21 -20 hstemhm
            hintmask 00100000
            return
          </CharString>
          <CharString index="212">
            -7 -36 rlineto
            49 hlineto
            68 8 -50 -34 -7 hvcurveto
            -47 -10 return
          </CharString>
          <CharString index="213">
            hlineto
            -18 -17 -10 -12 -2 hvcurveto
            -12 -3 12 -10 18 hhcurveto
            return
          </CharString>
          <CharString index="214">
            80 270 80 hstemhm
            90 80 -63 80 -23 80 -63 80 return
          </CharString>
          <CharString index="215">
            hstemhm
            74 74 -24 76 -60 76 -51 74 25 76 -60 76 return
          </CharString>
          <CharString index="216">
            625 26 callgsubr
            return
          </CharString>
          <CharString index="217">
            564 -81 callgsubr
            return
          </CharString>
          <CharString index="218">
            -21 127 66 hstem
            return
          </CharString>
          <CharString index="219">
            hvcurveto
            hintmask 00000100
            -65 callsubr
            hintmask 00001000
            -41 return
          </CharString>
          <CharString index="220">
            -28 2 -22 6 5 30 8 44 49 34 52 26 return
          </CharString>
          <CharString index="221">
            -24 -6 64 callgsubr
            -16 hvcurveto
            return
          </CharString>
          <CharString index="222">
            -15 -15 0 -17 -4 hvcurveto
            -18 -4 17 0 17 hhcurveto
            return
          </CharString>
          <CharString index="223">
            hlineto
            12 12 -1 12 hhcurveto
            endchar
          </CharString>
          <CharString index="224">
            97 64 callsubr
            return
          </CharString>
          <CharString index="225">
            628 rmoveto
            15 66 rlineto
            return
          </CharString>
          <CharString index="226">
            67 90 callsubr
            return
          </CharString>
          <CharString index="227">
            rlineto
            318 hlineto
            return
          </CharString>
          <CharString index="228">
            -55 61 280 61 0 61 280 61 hstemhm
            return
          </CharString>
          <CharString index="229">
            30 35 56 hhcurveto
            62 26 -42 -46 -10 hvcurveto
            -12 return
          </CharString>
          <CharString index="230">
            132 callsubr
            56 return
          </CharString>
          <CharString index="231">
            58 0 58 322 -20 hstemhm
            return
          </CharString>
          <CharString index="232">
            90 callgsubr
            107 76 return
          </CharString>
          <CharString index="233">
            625 -12 callgsubr
            return
          </CharString>
          <CharString index="234">
            443 -16 61 649 -20 return
          </CharString>
          <CharString index="235">
            76 12 73 -60 73 14 73 return
          </CharString>
          <CharString index="236">
            80 -63 80 hintmask 01010000
            return
          </CharString>
          <CharString index="237">
            hstemhm
            93 callgsubr
            return
          </CharString>
          <CharString index="238">
            78 2 71 162 78 -17 71 hintmask 10111010
            return
          </CharString>
          <CharString index="239">
            340 -8 63 317 58 123 -20 return
          </CharString>
          <CharString index="240" raw="1">
            2ffc4505 d706bef7 86050b 
          </CharString>
          <CharString index="241">
            rmoveto
            14 64 rlineto
            return
          </CharString>
        <CharString name=".notdef">
          280 endchar
        </CharString>
        <CharString name="A">
          -47 callgsubr
          hstem
          -106 callsubr
          endchar
        </CharString>
        <CharString name="AE">
          68 callsubr
          hstem
          527 83 vstem
          -62 callsubr
          endchar
        </CharString>
        <CharString name="AE.dup">
          68 callsubr
          hstem
          527 83 vstem
          -62 callsubr
          endchar
        </CharString>
        <CharString name="AEacute">
          68 callsubr
          119 callsubr
          527 83 hintmask 11110010
          -62 callsubr
          hintmask 00001100
          251 232 -96 callgsubr
        </CharString>
        <CharString name="Aacute">
          -47 callgsubr
          87 -21 122 -20 -104 callsubr
          hintmask 00011000
          236 397 -96 callgsubr
        </CharString>
        <CharString name="Abreve">
          -47 callgsubr
          66 66 127 -20 -104 callsubr
          hintmask 00011000
          27 callgsubr
          endchar
        </CharString>
        <CharString name="Abreveacute">
          -47 callgsubr
          66 66 284 -20 -104 callsubr
          hintmask 00011000
          27 callgsubr
          17 157 -96 callgsubr
        </CharString>
        <CharString name="Abrevedotbelow">
          55 callgsubr
          66 66 127 -20 hstemhm
          228 -8 callgsubr
          hintmask 01111101
          -106 callsubr
          27 callgsubr
          hintmask 10000001
          -359 -1133 -81 callgsubr
          hintmask 10000010
          -53 callgsubr
        </CharString>
        <CharString name="Abrevegrave">
          -47 callgsubr
          66 66 127 -20 -104 callsubr
          hintmask 00011000
          27 callgsubr
          -10 35 -42 callgsubr
        </CharString>
        <CharString name="Abrevehookabove">
          -47 callgsubr
          66 66 287 66 -104 callsubr
          hintmask 00011000
          221 468 -46 callsubr
        </CharString>
        <CharString name="Abrevetilde">
          -47 callgsubr
          66 66 182 61 -5 61 -104 callsubr
          hintmask 00010100
          27 callgsubr
          33 172 -70 callgsubr
        </CharString>
        <CharString name="Acaron">
          -47 callgsubr
          77 -21 134 -20 -104 callsubr
          hintmask 00011000
          202 399 -83 callgsubr
        </CharString>
        <CharString name="Acircumflex">
          -47 callgsubr
          77 -21 134 -20 -104 callsubr
          hintmask 00011000
          57 callgsubr
          endchar
        </CharString>
        <CharString name="Acircumflexacute">
          -47 callgsubr
          77 -21 291 -20 -104 callsubr
          hintmask 00011000
          57 callgsubr
          108 291 -96 callgsubr
        </CharString>
        <CharString name="Acircumflexdotbelow">
          55 callgsubr
          77 -21 134 -20 hstemhm
          228 -8 callgsubr
          hintmask 01111101
          -106 callsubr
          57 callgsubr
          hintmask 10000001
          -252 -930 -81 callgsubr
          hintmask 10000010
          -53 callgsubr
        </CharString>
        <CharString name="Acircumflexgrave">
          -47 callgsubr
          77 -21 134 -20 -104 callsubr
          hintmask 00011000
          57 callgsubr
          82 169 -42 callgsubr
        </CharString>
        <CharString name="Acircumflexhookabove">
          -47 callgsubr
          77 -21 360 -20 -104 callsubr
          hintmask 00011000
          173 265 -86 callgsubr
        </CharString>
        <CharString name="Acircumflextilde">
          -47 callgsubr
          77 -21 189 61 -5 61 -104 callsubr
          hintmask 00010100
          57 callgsubr
          125 306 -70 callgsubr
        </CharString>
        <CharString name="Adblgrave">
          -47 callgsubr
          87 -21 176 -20 -104 callsubr
          hintmask 00011000
          129 275 -89 callsubr
        </CharString>
        <CharString name="Adieresis">
          -47 callgsubr
          56 75 hstemhm
          347 7 callgsubr
          hintmask 11100010
          -106 callsubr
          hintmask 00010100
          -27 265 rmoveto
          -77 callsubr
          hintmask 00011001
          -63 callsubr
          hintmask 00010010
          -16 -75 rlineto
          endchar
        </CharString>
        <CharString name="Adotbelow">
          55 callgsubr
          hstemhm
          228 -8 callgsubr
          hintmask 01110100
          -106 callsubr
          hintmask 10000100
          -138 -665 rmoveto
          88 callgsubr
          endchar
        </CharString>
        <CharString name="Agrave">
          -47 callgsubr
          87 -21 122 -20 -104 callsubr
          hintmask 00011000
          114 275 -66 callsubr
        </CharString>
        <CharString name="Ahookabove">
          -47 callgsubr
          77 -21 211 -20 -104 callsubr
          hintmask 00011000
          137 404 -100 callsubr
        </CharString>
        <CharString name="Alpha">
          -47 callgsubr
          hstem
          -106 callsubr
          endchar
        </CharString>
        <CharString name="Amacron">
          -47 callgsubr
          76 64 -104 callsubr
          hintmask 00010000
          191 285 -63 callgsubr
        </CharString>
        <CharString name="Aogonek">
          102 callgsubr
          hstem
          -32 callsubr
          endchar
        </CharString>
        <CharString name="Aogonekacute">
          102 callgsubr
          87 90 callsubr
          hintmask 11110000
          -32 callsubr
          hintmask 00001100
          236 397 -96 callgsubr
        </CharString>
        <CharString name="Aring">
          -56 callsubr
          49 78 49 -104 callsubr
          hintmask 00110000
          75 317 -72 callsubr
          endchar
        </CharString>
        <CharString name="Aringacute">
          -56 callsubr
          49 78 49 157 -20 -104 callsubr
          hintmask 00111000
          75 317 -72 callsubr
          90 245 -96 callgsubr
        </CharString>
        <CharString name="Atilde">
          -47 callgsubr
          56 61 -5 61 -104 callsubr
          hintmask 00001000
          199 382 -88 callsubr
          5 13 -22 callgsubr
          16 -8 -15 17 -28 callgsubr
          57 38 79 19 hvcurveto
          endchar
        </CharString>
        <CharString name="B">
          -51 callgsubr
        </CharString>
        <CharString name="Beta">
          -51 callgsubr
        </CharString>
        <CharString name="C">
          601 70 callgsubr
          hstem
          -95 callgsubr
          endchar
        </CharString>
        <CharString name="Cacute">
          601 70 callgsubr
          66 90 callsubr
          hintmask 11000000
          -95 callgsubr
          hintmask 00110000
          147 815 -96 callgsubr
        </CharString>
        <CharString name="Ccaron">
          601 70 callgsubr
          56 -21 134 -20 hstemhm
          hintmask 11000000
          -95 callgsubr
          hintmask 00110000
          113 817 -83 callgsubr
        </CharString>
        <CharString name="Ccedilla">
          122 callgsubr
          72 callsubr
          -144 -51 149 150 32 hvcurveto
          159 34 121 140 132 hhcurveto
          94 callsubr
          -181 -164 -170 -193 -41 hvcurveto
          -191 -41 89 -172 185 hhcurveto
          80 40 14 42 73 hvcurveto
          -193 -74 4 callsubr
        </CharString>
        <CharString name="Ccircumflex">
          601 70 callgsubr
          56 -21 134 -20 hstemhm
          hintmask 11000000
          -95 callgsubr
          hintmask 00110000
          84 683 -78 callsubr
        </CharString>
        <CharString name="Cdotaccent">
          601 70 callgsubr
          35 84 hstemhm
          443 -8 callgsubr
          hintmask 11000000
          -95 callgsubr
          hintmask 00101000
          -30 683 -81 callgsubr
          hintmask 00110000
          -53 callgsubr
        </CharString>
        <CharString name="Chi">
          2 callgsubr
        </CharString>
        <CharString name="D">
          678 0 56 582 56 hstem
          615 82 vstem
          -71 callgsubr
          endchar
        </CharString>
        <CharString name="Dcaron">
          678 0 56 582 56 57 -21 134 -20 hstemhm
          615 82 hintmask 11001000
          -71 callgsubr
          hintmask 00110000
          -33 523 -83 callgsubr
        </CharString>
        <CharString name="Dcroat">
          -44 callsubr
        </CharString>
        <CharString name="Ddotbelow">
          678 -200 84 116 56 582 56 hstemhm
          157 -8 callgsubr
          356 82 hintmask 01100100
          -71 callgsubr
          hintmask 10001000
          -374 -541 -34 callsubr
        </CharString>
        <CharString name="Delta">
          784 0 79 615 -20 hstem
          744 hmoveto
          -160 694 rlineto
          -89 hlineto
          -456 -44 callgsubr
          595 79 rmoveto
          -465 hlineto
          219 335 43 67 61 91 24 48 rlinecurve
          5 -51 21 -92 17 -70 rrcurveto
          endchar
        </CharString>
        <CharString name="Dlinebelow">
          678 -190 64 126 56 582 56 hstemhm
          615 82 hintmask 01110000
          -71 callgsubr
          hintmask 10000000
          -243 -531 -2 callsubr
        </CharString>
        <CharString name="E">
          -48 callsubr
          hstem
          521 hmoveto
          -102 callgsubr
          endchar
        </CharString>
        <CharString name="Eacute">
          -48 callsubr
          69 -21 122 -20 -98 callsubr
          hintmask 00011000
          567 862 -96 callgsubr
        </CharString>
        <CharString name="Ebreve">
          -48 callsubr
          48 66 127 -20 -98 callsubr
          hintmask 00011000
          552 933 -93 callgsubr
          endchar
        </CharString>
        <CharString name="Ecaron">
          -48 callsubr
          59 -21 134 -20 -98 callsubr
          hintmask 00011000
          533 864 -83 callgsubr
        </CharString>
        <CharString name="Ecircumflex">
          -48 callsubr
          59 -21 134 -17 callgsubr
          endchar
        </CharString>
        <CharString name="Ecircumflexacute">
          -48 callsubr
          59 -21 291 -17 callgsubr
          108 291 -96 callgsubr
        </CharString>
        <CharString name="Ecircumflexdotbelow">
          561 -200 84 116 68 261 61 237 65 59 -21 134 -20 hstemhm
          196 -8 callgsubr
          hintmask 01111110
          521 hmoveto
          -102 callgsubr
          13 callsubr
          hintmask 10000001
          -253 -930 -81 callgsubr
          hintmask 10000010
          -53 callgsubr
        </CharString>
        <CharString name="Ecircumflexgrave">
          -48 callsubr
          59 -21 134 -17 callgsubr
          82 169 -42 callgsubr
        </CharString>
        <CharString name="Ecircumflexhookabove">
          -48 callsubr
          59 -21 360 -20 hstemhm
          hintmask 11100000
          521 hmoveto
          15 69 -216 -1 -134 -1 56 262 rlineto
          310 hlineto
          13 61 rlineto
          -310 hlineto
          50 238 rlineto
          129 hlineto
          12 12 -1 12 hhcurveto
          171 hlineto
          14 65 rlineto
          -420 hlineto
          -147 -692 rlineto
          hintmask 00011000
          504 730 -86 callgsubr
        </CharString>
        <CharString name="Ecircumflextilde">
          -48 callsubr
          59 -21 189 61 -5 61 -98 callsubr
          hintmask 00010100
          13 callsubr
          125 306 -70 callgsubr
        </CharString>
        <CharString name="Edblgrave">
          -48 callsubr
          69 -21 176 -20 -98 callsubr
          hintmask 00011000
          486 740 -89 callsubr
        </CharString>
        <CharString name="Edieresis">
          -48 callsubr
          38 75 hstemhm
          316 7 callgsubr
          hintmask 11100000
          521 hmoveto
          -102 callgsubr
          hintmask 00010100
          304 110 callgsubr
          hintmask 00011001
          -63 callsubr
          hintmask 00010010
          -16 -75 rlineto
          endchar
        </CharString>
        <CharString name="Edotaccent">
          -48 callsubr
          38 84 hstemhm
          394 -8 callgsubr
          hintmask 11100000
          521 hmoveto
          -102 callgsubr
          hintmask 00010100
          390 730 -81 callgsubr
          hintmask 00011000
          -53 callgsubr
        </CharString>
        <CharString name="Edotbelow">
          561 -200 84 116 68 261 61 237 65 hstemhm
          196 -8 callgsubr
          hintmask 01110000
          521 hmoveto
          -102 callgsubr
          hintmask 10000100
          192 -200 rmoveto
          88 callgsubr
          endchar
        </CharString>
        <CharString name="Egrave">
          -48 callsubr
          69 -21 122 -20 -98 callsubr
          hintmask 00011000
          445 740 -66 callsubr
        </CharString>
        <CharString name="Ehookabove">
          -48 callsubr
          59 -21 211 -20 -98 callsubr
          hintmask 00011000
          468 869 -100 callsubr
        </CharString>
        <CharString name="Emacron">
          -48 callsubr
          58 64 -98 callsubr
          hintmask 00010000
          522 750 -63 callgsubr
        </CharString>
        <CharString name="Eng">
          663 -16 76 574 76 hstem
          88 84 64 84 244 84 vstem
          648 347 rmoveto
          178 38 -16 185 -154 hhcurveto
          -77 -74 -33 -52 -60 hvcurveto
          15 69 -14 callsubr
          98 460 rlineto
          97 38 93 77 99 hhcurveto
          116 -24 -152 -135 -28 hvcurveto
          -135 -29 -41 -152 -116 hhcurveto
          -16 -76 rlineto
          154 94 186 177 38 hvcurveto
          endchar
        </CharString>
        <CharString name="Eogonek">
          561 -212 70 142 68 261 61 237 65 hstem
          242 63 15 63 33 63 vstem
          486 -187 rmoveto
          65 callsubr
          42 hlineto
          -102 callgsubr
          328 20 callgsubr
        </CharString>
        <CharString name="Eogonekacute">
          561 -212 70 142 68 261 61 237 65 69 90 callsubr
          242 63 15 63 33 63 hintmask 1111001110000000
          486 -187 rmoveto
          65 callsubr
          42 hlineto
          -102 callgsubr
          328 -52 callgsubr
          hintmask 0000110000000000
          169 1049 -96 callgsubr
        </CharString>
        <CharString name="Epsilon">
          -48 callsubr
          hstem
          521 hmoveto
          -102 callgsubr
          endchar
        </CharString>
        <CharString name="Ereversed">
          -48 callsubr
          hstem
          521 hmoveto
          147 692 rlineto
          -420 hlineto
          -14 -65 rlineto
          171 hlineto
          12 12 1 12 hhcurveto
          129 hlineto
          -50 -238 rlineto
          -310 hlineto
          -13 -61 rlineto
          310 hlineto
          -56 -262 -134 1 -214 1 -15 -69 rlineto
          endchar
        </CharString>
        <CharString name="Eta">
          36 callgsubr
          hstem
          98 callgsubr
          vstem
          -78 callgsubr
          endchar
        </CharString>
        <CharString name="Eth">
          -44 callsubr
        </CharString>
        <CharString name="Etilde">
          -48 callsubr
          38 61 -5 61 -98 callsubr
          hintmask 00001000
          530 847 -88 callsubr
          5 13 -22 callgsubr
          16 -8 -15 17 -28 callgsubr
          57 38 79 19 hvcurveto
          endchar
        </CharString>
        <CharString name="Euro">
          563 -16 56 -56 64 207 56 72 56 207 64 hstemhm
          188 84 261 84 hintmask 01111110
          525 40 rmoveto
          8 68 rlineto
          -48 -55 -30 -12 -65 hhcurveto
          -54 -34 40 48 -17 hvcurveto
          -14 37 -5 40 1 42 rrcurveto
          225 hlineto
          22 56 rlineto
          -242 hlineto
          2 12 2 12 3 12 2 12 3 12 4 12 rrcurveto
          254 hlineto
          22 56 rlineto
          -258 hlineto
          17 42 22 41 30 37 rrcurveto
          47 37 51 40 54 hhcurveto
          50 31 -14 -36 26 hvcurveto
          32 80 rlineto
          25 -40 -34 9 -51 hhcurveto
          -75 -74 -45 -61 -57 hvcurveto
          -45 -49 -34 -57 -24 -59 rrcurveto
          -65 hlineto
          -21 -56 rlineto
          68 hlineto
          -4 -12 -3 -12 -2 -12 -3 -12 -2 -12 -2 -12 rrcurveto
          -58 hlineto
          -22 -56 rlineto
          75 hlineto
          -1 -59 9 -56 25 -50 rrcurveto
          -61 30 56 -45 74 hhcurveto
          hintmask 10000000
          67 30 11 45 59 hvcurveto
          endchar
        </CharString>
        <CharString name="F">
          535 21 -21 316 61 250 65 hstem
          88 84 vstem
          628 627 rmoveto
          14 65 rlineto
          -407 -26 callgsubr
          84 hlineto
          67 316 rlineto
          284 hlineto
          13 61 rlineto
          -284 hlineto
          53 251 rlineto
          122 116 callsubr
        </CharString>
        <CharString name="G">
          81 callgsubr
          hstem
          -101 callgsubr
          endchar
        </CharString>
        <CharString name="Gacute">
          81 callgsubr
          66 90 callsubr
          hintmask 11000000
          -101 callgsubr
          hintmask 00110000
          120 821 -96 callgsubr
        </CharString>
        <CharString name="Gamma">
          509 21 -21 627 65 hstem
          88 84 vstem
          602 627 rmoveto
          14 65 rlineto
          -381 -26 callgsubr
          84 hlineto
          133 628 rlineto
          109 116 callsubr
        </CharString>
        <CharString name="Gbreve">
          81 callgsubr
          45 66 127 -20 hstemhm
          hintmask 11000000
          -101 callgsubr
          hintmask 00110000
          105 892 -93 callgsubr
          endchar
        </CharString>
        <CharString name="Gcaron">
          81 callgsubr
          56 -21 134 -20 hstemhm
          hintmask 11000000
          -101 callgsubr
          hintmask 00110000
          86 823 -83 callgsubr
        </CharString>
        <CharString name="Gcedilla">
          627 -30 callsubr
          50 64 575 64 hstem
          -101 callgsubr
          -244 -170 -92 callgsubr
        </CharString>
        <CharString name="Gcircumflex">
          81 callgsubr
          56 -21 134 -20 hstemhm
          hintmask 11000000
          -101 callgsubr
          hintmask 00110000
          57 689 -78 callsubr
        </CharString>
        <CharString name="Gcommaaccent">
          627 -30 callsubr
          50 64 575 64 hstemhm
          hintmask 00110000
          -101 callgsubr
          hintmask 11000000
          -244 -170 -92 callgsubr
        </CharString>
        <CharString name="Gdotaccent">
          81 callgsubr
          35 84 hstemhm
          427 -8 callgsubr
          hintmask 11000000
          -101 callgsubr
          hintmask 00101000
          -56 689 -81 callgsubr
          hintmask 00110000
          -53 callgsubr
        </CharString>
        <CharString name="H">
          36 callgsubr
          hstem
          98 callgsubr
          vstem
          -78 callgsubr
          endchar
        </CharString>
        <CharString name="H_uni0303">
          36 callgsubr
          56 86 callsubr
          98 callgsubr
          hintmask 1110011110000000
          -78 callgsubr
          hintmask 0000100000000000
          179 847 rmoveto
          -61 hlineto
          hintmask 0001000000000000
          -93 callsubr
          hintmask 0000100000000000
          -65 callsubr
          hintmask 0001000000000000
          -41 -57 -38 -79 -19 hvcurveto
          61 hlineto
          hintmask 0000100000000000
          -54 callgsubr
          hintmask 0001000000000000
          -64 callgsubr
          hintmask 0000100000000000
          -58 callsubr
        </CharString>
        <CharString name="Hbar">
          663 21 -21 330 61 98 64 141 -20 hstemhm
          88 84 20 84 -70 84 -54 84 170 84 20 84 -70 84 -54 84 hintmask 0010000000100000
          729 489 134 callsubr
          -51 hlineto
          hintmask 0001000000010000
          30 141 -21 callsubr
          hintmask 0010001000100000
          -30 -141 rlineto
          -318 hlineto
          hintmask 0001000100000000
          30 141 -21 callsubr
          hintmask 0010001000000000
          -30 -141 rlineto
          -51 101 callgsubr
          hintmask 1110110011000000
          51 hlineto
          -104 -489 rlineto
          84 hlineto
          70 330 120 callsubr
          -70 -330 rlineto
          84 hlineto
          104 489 rlineto
          -105 -98 rmoveto
          -318 hlineto
          21 98 120 callsubr
          endchar
        </CharString>
        <CharString name="Hbrevebelow">
          663 119 callgsubr
          102 -21 330 61 303 -20 hstemhm
          98 callgsubr
          hintmask 0011111110000000
          -78 callgsubr
          hintmask 1100000000000000
          -11 -31 callsubr
        </CharString>
        <CharString name="Hcircumflex">
          36 callgsubr
          77 -21 134 -20 hstemhm
          98 callgsubr
          hintmask 1110011110000000
          -78 callgsubr
          hintmask 0001100000000000
          153 -4 callgsubr
        </CharString>
        <CharString name="Hdieresis">
          36 callgsubr
          56 75 hstemhm
          88 84 64 84 47 76 -60 76 31 84 -43 76 -60 76 15 84 hintmask 1110110010010000
          -78 callgsubr
          hintmask 0001000100000000
          -47 38 callgsubr
        </CharString>
        <CharString name="Hdotbelow">
          663 26 callgsubr
          330 61 303 -20 hstemhm
          88 84 64 84 -73 -8 callgsubr
          141 84 64 84 hintmask 0111110011000000
          -78 callgsubr
          hintmask 1000000100000000
          -159 -200 -81 callgsubr
          hintmask 1000001000000000
          -53 callgsubr
        </CharString>
        <CharString name="I">
          36 callsubr
          hstem
          93 callgsubr
          vstem
          -73 callgsubr
          endchar
        </CharString>
        <CharString name="I_J">
          676 -16 61 649 -20 hstem
          93 callgsubr
          229 82 34 82 vstem
          -73 callgsubr
          543 -64 callsubr
          endchar
        </CharString>
        <CharString name="Iacute">
          36 callsubr
          87 -21 122 -20 130 callsubr
          hintmask 11001100
          -73 callgsubr
          hintmask 00110000
          469 862 -96 callgsubr
        </CharString>
        <CharString name="Ibreve">
          36 callsubr
          66 66 127 -20 130 callsubr
          hintmask 11001100
          -73 callgsubr
          hintmask 00110000
          401 933 -93 callgsubr
          endchar
        </CharString>
        <CharString name="Icaron">
          36 callsubr
          77 -21 134 -20 130 callsubr
          hintmask 11001100
          -73 callgsubr
          hintmask 00110000
          382 864 -83 callgsubr
        </CharString>
        <CharString name="Icircumflex">
          36 callsubr
          77 -21 134 -20 130 callsubr
          hintmask 11001100
          -73 callgsubr
          hintmask 00110000
          353 -4 callgsubr
        </CharString>
        <CharString name="Idblgrave">
          36 callsubr
          87 -21 176 -20 130 callsubr
          hintmask 11001100
          -73 callgsubr
          hintmask 00110000
          335 740 -89 callsubr
        </CharString>
        <CharString name="Idieresis">
          36 callsubr
          56 75 hstemhm
          87 84 -7 76 -60 76 -21 84 9 76 -60 76 hintmask 1101001000000000
          -73 callgsubr
          hintmask 0010010000000000
          153 110 callgsubr
          hintmask 0010100010000000
          -63 callsubr
          hintmask 0010000100000000
          -16 -75 rlineto
          endchar
        </CharString>
        <CharString name="Idieresisacute">
          36 callsubr
          56 75 119 callsubr
          87 84 -7 76 -60 76 -21 84 9 76 -60 76 hintmask 1100010010000000
          -73 callgsubr
          hintmask 0010000100000000
          153 110 callgsubr
          hintmask 0010001000100000
          -63 callsubr
          hintmask 0011100001000000
          -16 -75 rlineto
          198 243 -96 callgsubr
        </CharString>
        <CharString name="Idotaccent">
          36 callsubr
          56 84 130 callsubr
          -76 84 -66 83 callgsubr
          hintmask 00100010
          240 730 -81 callgsubr
          hintmask 00100100
          -53 callgsubr
        </CharString>
        <CharString name="Idotbelow">
          259 26 callgsubr
          694 -20 hstemhm
          45 -8 callgsubr
          -60 84 64 84 hintmask 01100110
          -73 callgsubr
          hintmask 10001000
          42 -200 -34 callsubr
        </CharString>
        <CharString name="Igrave">
          36 callsubr
          87 -21 122 -20 130 callsubr
          hintmask 11001100
          -73 callgsubr
          hintmask 00110000
          241 740 -66 callsubr
        </CharString>
        <CharString name="Ihookabove">
          36 callsubr
          77 -21 211 -20 130 callsubr
          hintmask 11001100
          -73 callgsubr
          hintmask 00110000
          317 869 -100 callsubr
        </CharString>
        <CharString name="Imacron">
          30 callsubr
          371 750 -63 callgsubr
        </CharString>
        <CharString name="Imacron.alt">
          30 callsubr
          293 750 8 callsubr
        </CharString>
        <CharString name="Iogonek">
          259 -212 70 163 -27 callgsubr
          hstem
          93 callgsubr
          vstem
          178 -187 rmoveto
          -66 callgsubr
          -35 callgsubr
          rcurveline
          -61 callsubr
          21 20 callgsubr
        </CharString>
        <CharString name="Iogonekacute">
          259 -212 70 163 -27 callgsubr
          87 -21 122 -20 130 callsubr
          hintmask 11100110
          178 -187 rmoveto
          -66 callgsubr
          -35 callgsubr
          rcurveline
          -61 callsubr
          21 -52 callgsubr
          hintmask 00011000
          378 1049 -96 callgsubr
        </CharString>
        <CharString name="Iota">
          36 callsubr
          hstem
          93 callgsubr
          vstem
          -73 callgsubr
          endchar
        </CharString>
        <CharString name="Itilde">
          36 callsubr
          56 61 -5 61 130 callsubr
          hintmask 11001100
          -73 callgsubr
          hintmask 00010000
          379 22 callsubr
          hintmask 00010100
          37 callsubr
        </CharString>
        <CharString name="J">
          127 callsubr
          hstem
          315 82 34 82 vstem
          397 -64 callsubr
          endchar
        </CharString>
        <CharString name="J_uni030C.cap">
          442.86667 -16 61 486 -21 112 72 hstem
          315 82 34 82 vstem
          397 -64 callsubr
          209 474 9 callgsubr
        </CharString>
        <CharString name="Jacute">
          127 callsubr
          87 90 callsubr
          315 82 34 82 hintmask 11001100
          397 -64 callsubr
          hintmask 00110000
          355 713 -96 callgsubr
        </CharString>
        <CharString name="Jcircumflex">
          127 callsubr
          77 -21 134 -20 hstemhm
          315 82 34 82 hintmask 11001100
          397 -64 callsubr
          hintmask 00110000
          238 581 -78 callsubr
        </CharString>
        <CharString name="K">
          651 50 callsubr
          88 84 64 84 vstem
          -50 callgsubr
          endchar
        </CharString>
        <CharString name="Kappa">
          651 50 callsubr
          88 84 64 84 vstem
          -50 callgsubr
          endchar
        </CharString>
        <CharString name="Kcedilla">
          651 29 callsubr
          hstem
          88 84 64 84 vstem
          -50 callgsubr
          -183 -129 -92 callgsubr
        </CharString>
        <CharString name="Kcommaaccent">
          651 29 callsubr
          hstemhm
          88 84 64 84 hintmask 00111100
          -50 callgsubr
          hintmask 11000000
          -183 -129 -92 callgsubr
        </CharString>
        <CharString name="L">
          509 0 134 callgsubr
          hstem
          236 84 vstem
          -74 callgsubr
          endchar
        </CharString>
        <CharString name="L_uni0303">
          509 0 134 callgsubr
          56 86 callsubr
          236 84 hintmask 11001000
          -74 callgsubr
          hintmask 00010000
          379 22 callsubr
          hintmask 00011000
          37 callsubr
        </CharString>
        <CharString name="Lacute">
          509 0 134 callgsubr
          87 90 callsubr
          236 84 hintmask 11001000
          -74 callgsubr
          hintmask 00110000
          469 862 -96 callgsubr
        </CharString>
        <CharString name="Lambda">
          572 50 callsubr
          545 hmoveto
          -69 694 rlineto
          -85 hlineto
          -365 -44 callgsubr
          75 hlineto
          164 317 80 158 20 40 32 64 12 36 rlinecurve
          1 1 -5 -52 17 -202 7 -67 rlinecurve
          28 -295 rlineto
          endchar
        </CharString>
        <CharString name="Lcaron">
          509 0 65 466 -21 112 72 hstem
          236 84 vstem
          -74 callgsubr
          342 623 9 callgsubr
        </CharString>
        <CharString name="Lcedilla">
          509 -30 callsubr
          58 134 callgsubr
          hstem
          236 84 vstem
          -74 callgsubr
          176 -129 -92 callgsubr
        </CharString>
        <CharString name="Lcommaaccent">
          509 -30 callsubr
          58 134 callgsubr
          hstemhm
          236 84 hintmask 00111000
          -74 callgsubr
          hintmask 11000000
          176 -129 -92 callgsubr
        </CharString>
        <CharString name="Ldot">
          509 0 65 256 84 289 -20 hstemhm
          236 84 90 -8 callgsubr
          hintmask 11110100
          -74 callgsubr
          406 321 -81 callgsubr
          hintmask 01001000
          -53 callgsubr
        </CharString>
        <CharString name="Ldotbelow">
          509 -200 84 116 134 callgsubr
          hstemhm
          170 -8 callgsubr
          -36 84 hintmask 01100100
          -74 callgsubr
          hintmask 10001000
          166 -200 -34 callsubr
        </CharString>
        <CharString name="Ldotbelowmacron">
          509 -200 84 116 134 callgsubr
          76 64 hstemhm
          170 -8 callgsubr
          -36 84 hintmask 01100010
          -74 callgsubr
          166 -200 46 callsubr
          289 950 -63 callgsubr
        </CharString>
        <CharString name="Lslash">
          587 0 134 callgsubr
          hstem
          312 84 vstem
          545 hmoveto
          14 65 rlineto
          -208 hlineto
          -12 -12 -1 -12 hhcurveto
          -53 hlineto
          63 297 201 142 -29 45 -156 -111 55 257 -21 callsubr
          -70 -329 -122 -87 28 -43 78 56 -62 -291 rlineto
          endchar
        </CharString>
        <CharString name="M">
          820 50 callsubr
          90 78 332 78 72 79 vstem
          -68 callsubr
          endchar
        </CharString>
        <CharString name="Mdotbelow">
          820 26 callgsubr
          694 -20 hstemhm
          90 78 157 -8 callgsubr
          73 78 72 79 hintmask 01110011
          -68 callsubr
          hintmask 10000100
          -241 -200 rmoveto
          88 callgsubr
          endchar
        </CharString>
        <CharString name="Mu">
          820 50 callsubr
          90 78 332 78 72 79 vstem
          -68 callsubr
          endchar
        </CharString>
        <CharString name="N">
          663 50 callsubr
          88 78 478 78 vstem
          -94 callsubr
          endchar
        </CharString>
        <CharString name="Nacute">
          663 -12 callgsubr
          87 90 callsubr
          88 78 478 78 hintmask 11001100
          -94 callsubr
          hintmask 00110000
          255 862 -96 callgsubr
        </CharString>
        <CharString name="Ncaron">
          663 -12 callgsubr
          77 -21 134 -20 hstemhm
          88 78 478 78 hintmask 11001100
          -94 callsubr
          hintmask 00110000
          221 864 -83 callgsubr
        </CharString>
        <CharString name="Ncedilla">
          663 29 callsubr
          hstem
          88 78 478 78 vstem
          -94 callsubr
          -110 -129 -92 callgsubr
        </CharString>
        <CharString name="Ncommaaccent">
          663 29 callsubr
          hstemhm
          88 78 478 78 hintmask 00111100
          -94 callsubr
          hintmask 11000000
          -110 -129 -92 callgsubr
        </CharString>
        <CharString name="Ndotaccent">
          663 -12 callgsubr
          56 84 hstemhm
          88 78 279 -8 callgsubr
          97 78 hintmask 11010010
          -94 callsubr
          hintmask 00100100
          78 730 -81 callgsubr
          hintmask 00101000
          -53 callgsubr
        </CharString>
        <CharString name="Ndotbelow">
          663 26 callgsubr
          694 -20 hstemhm
          88 78 81 -8 callgsubr
          295 78 hintmask 01110010
          -94 callsubr
          hintmask 10000100
          -120 -200 rmoveto
          88 callgsubr
          endchar
        </CharString>
        <CharString name="Ntilde">
          663 -12 callgsubr
          56 86 callsubr
          88 78 478 78 hintmask 11001100
          -94 callsubr
          hintmask 00010000
          218 22 callsubr
          hintmask 00010000
          37 callsubr
        </CharString>
        <CharString name="Nu">
          663 50 callsubr
          88 78 478 78 vstem
          -94 callsubr
          endchar
        </CharString>
        <CharString name="O">
          -28 callsubr
          hstem
          714 346 rmoveto
          208 44 -104 156 -157 -107 callsubr
          endchar
        </CharString>
        <CharString name="OE">
          -61 callgsubr
        </CharString>
        <CharString name="OE.dup">
          -61 callgsubr
        </CharString>
        <CharString name="Oacute">
          -28 callsubr
          51 90 callsubr
          hintmask 11000000
          714 346 rmoveto
          208 44 -104 156 -157 -107 callsubr
          hintmask 00110000
          88 503 -96 callgsubr
        </CharString>
        <CharString name="Obreve">
          -28 callsubr
          30 66 127 -20 hstemhm
          hintmask 11000000
          714 346 rmoveto
          208 44 -104 156 -157 -107 callsubr
          hintmask 00110000
          73 574 -93 callgsubr
          endchar
        </CharString>
        <CharString name="Ocaron">
          -28 callsubr
          41 -21 134 -20 hstemhm
          hintmask 11000000
          714 346 rmoveto
          208 44 -104 156 -157 -107 callsubr
          hintmask 00110000
          54 505 -83 callgsubr
        </CharString>
        <CharString name="Ocircumflex">
          -28 callsubr
          41 -21 134 -20 hstemhm
          hintmask 11000000
          714 346 rmoveto
          208 44 -104 156 -157 -107 callsubr
          hintmask 00110000
          15 callsubr
          endchar
        </CharString>
        <CharString name="Ocircumflexacute">
          -28 callsubr
          41 -21 291 -20 hstemhm
          hintmask 11000000
          714 346 rmoveto
          208 44 -104 156 -157 -107 callsubr
          hintmask 00110000
          15 callsubr
          108 291 -96 callgsubr
        </CharString>
        <CharString name="Ocircumflexdotbelow">
          693 -200 84 100 63 600 63 41 -21 134 -20 hstemhm
          262 -8 callgsubr
          hintmask 01111000
          714 346 rmoveto
          208 44 -104 156 -157 -107 callsubr
          15 callsubr
          hintmask 10000010
          -252 -930 -81 callgsubr
          hintmask 10000100
          -53 callgsubr
        </CharString>
        <CharString name="Ocircumflexgrave">
          -28 callsubr
          41 -21 134 -20 hstemhm
          hintmask 11000000
          714 346 rmoveto
          208 44 -104 156 -157 -107 callsubr
          hintmask 00110000
          15 callsubr
          82 169 -42 callgsubr
        </CharString>
        <CharString name="Ocircumflexhookabove">
          -28 callsubr
          41 -21 360 -20 hstemhm
          hintmask 11000000
          714 346 rmoveto
          208 44 -104 156 -157 -107 callsubr
          hintmask 00110000
          25 371 -86 callgsubr
        </CharString>
        <CharString name="Ocircumflextilde">
          -28 callsubr
          41 -21 189 86 callsubr
          hintmask 11000000
          714 346 rmoveto
          208 44 -104 156 -157 -107 callsubr
          hintmask 00101000
          15 callsubr
          125 306 -88 callsubr
          5 13 -22 callgsubr
          16 -8 -15 17 -28 callgsubr
          57 38 79 19 hvcurveto
          endchar
        </CharString>
        <CharString name="Odblgrave">
          -28 callsubr
          51 64 callsubr
          hintmask 11000000
          714 346 rmoveto
          208 44 -104 156 -157 -107 callsubr
          hintmask 00110000
          7 381 -89 callsubr
        </CharString>
        <CharString name="Odieresis">
          -28 callsubr
          20 75 hstemhm
          381 7 callgsubr
          hintmask 11000000
          714 346 rmoveto
          208 44 -104 156 -157 -107 callsubr
          hintmask 00101000
          -175 371 53 callgsubr
        </CharString>
        <CharString name="Odotbelow">
          693 -200 84 100 63 600 63 hstemhm
          262 -8 callgsubr
          hintmask 01100000
          714 346 rmoveto
          208 44 -104 156 -157 -107 callsubr
          hintmask 10001000
          -286 -559 -34 callsubr
        </CharString>
        <CharString name="Ograve">
          -28 callsubr
          51 90 callsubr
          hintmask 11000000
          714 346 rmoveto
          208 44 -104 156 -157 -107 callsubr
          hintmask 00110000
          -34 381 -66 callsubr
        </CharString>
        <CharString name="Ohookabove">
          -28 callsubr
          41 -21 211 -20 hstemhm
          hintmask 11000000
          714 346 rmoveto
          208 44 -104 156 -157 -107 callsubr
          hintmask 00110000
          -11 510 -100 callsubr
        </CharString>
        <CharString name="Ohorn">
          49 callgsubr
          hstemhm
          659 79 -63 79 hintmask 00010000
          -4 callsubr
          hintmask 00101000
          16 77 rlineto
          -79 hlineto
          hintmask 00110000
          -16 -78 rlineto
          24 hlineto
          -35 -23 rlineto
          hintmask 11000000
          39 -39 -52 23 -60 -107 callsubr
          endchar
        </CharString>
        <CharString name="Ohornacute">
          49 callgsubr
          12 90 callsubr
          659 79 -63 79 hintmask 00000100
          -4 callsubr
          hintmask 00100010
          16 77 rlineto
          -79 hlineto
          hintmask 00100100
          -16 -78 rlineto
          24 hlineto
          -35 -23 rlineto
          hintmask 11000000
          39 -39 -52 23 -60 -107 callsubr
          hintmask 00011000
          62 503 -96 callgsubr
        </CharString>
        <CharString name="Ohorndotbelow">
          678 -200 84 100 63 600 63 -39 78 hstemhm
          254 -8 callgsubr
          303 79 -63 79 hintmask 00000010
          -4 callsubr
          hintmask 00010001
          16 77 rlineto
          -79 hlineto
          hintmask 00010010
          -16 -78 rlineto
          24 hlineto
          -35 -23 rlineto
          hintmask 01100100
          39 -39 -52 23 -60 -107 callsubr
          hintmask 10000100
          -294 -559 rmoveto
          88 callgsubr
          endchar
        </CharString>
        <CharString name="Ohorngrave">
          49 callgsubr
          12 90 callsubr
          659 79 -63 79 hintmask 00000100
          -4 callsubr
          hintmask 00100010
          16 77 rlineto
          -79 hlineto
          hintmask 00100100
          -16 -78 rlineto
          24 hlineto
          -35 -23 rlineto
          hintmask 11000000
          39 -39 -52 23 -60 -107 callsubr
          hintmask 00011000
          -34 381 -66 callsubr
        </CharString>
        <CharString name="Ohornhookabove">
          49 callgsubr
          2 -21 211 -20 hstemhm
          659 79 -63 79 hintmask 00000100
          -4 callsubr
          hintmask 00100010
          16 77 rlineto
          -79 hlineto
          hintmask 00100100
          -16 -78 rlineto
          24 hlineto
          -35 -23 rlineto
          hintmask 11000000
          39 -39 -52 23 -60 -107 callsubr
          hintmask 00011000
          -11 510 -100 callsubr
        </CharString>
        <CharString name="Ohorntilde">
          49 callgsubr
          -19 86 callsubr
          659 79 -63 79 hintmask 00000100
          -4 callsubr
          hintmask 00100010
          16 77 rlineto
          -79 hlineto
          hintmask 00100100
          -16 -78 rlineto
          24 hlineto
          -35 -23 rlineto
          hintmask 11000000
          39 -39 -52 23 -60 -107 callsubr
          hintmask 00001000
          51 488 -88 callsubr
          5 13 -22 callgsubr
          16 -8 -15 17 -28 callgsubr
          57 38 79 19 hvcurveto
          endchar
        </CharString>
        <CharString name="Ohungarumlaut">
          -28 callsubr
          51 64 callsubr
          hintmask 11000000
          714 346 rmoveto
          208 44 -104 156 -157 -107 callsubr
          hintmask 00110000
          -92 557 -58 callgsubr
        </CharString>
        <CharString name="Omacron">
          -28 callsubr
          40 64 hstemhm
          hintmask 11000000
          714 346 rmoveto
          208 44 -104 156 -157 -107 callsubr
          hintmask 00100000
          43 391 -63 callgsubr
        </CharString>
        <CharString name="Omega">
          -57 callgsubr
        </CharString>
        <CharString name="Omicron">
          -28 callsubr
          hstem
          714 346 rmoveto
          208 44 -104 156 -157 -107 callsubr
          endchar
        </CharString>
        <CharString name="Oogonek">
          -28 callsubr
          hstem
          -46 callgsubr
          endchar
        </CharString>
        <CharString name="Oogonekacute">
          -28 callsubr
          51 90 callsubr
          hintmask 11000000
          -46 callgsubr
          hintmask 00110000
          88 503 -96 callgsubr
        </CharString>
        <CharString name="Orogate">
          693 -23 callsubr
          41 194 -88 149 -140 19 39 181 rcurveline
          -62 hlineto
          -39 -181 -147 -19 -151 -150 -41 -193 rlinecurve
          -42 -195 90 -146 138 -19 -38 -181 rcurveline
          62 hlineto
          38 181 146 19 152 146 42 195 rlinecurve
          -82 13 rmoveto
          -190 -40 -127 -122 -109 hhcurveto
          -110 -74 123 189 40 hvcurveto
          184 39 129 104 104 hhcurveto
          104 83 -104 -184 -39 hvcurveto
          endchar
        </CharString>
        <CharString name="Oslash">
          77 callsubr
          hstem
          126 84 458 84 vstem
          -84 callsubr
          endchar
        </CharString>
        <CharString name="Oslash.dup">
          77 callsubr
          hstem
          126 84 458 84 vstem
          -84 callsubr
          endchar
        </CharString>
        <CharString name="Oslashacute">
          77 callsubr
          23 90 callsubr
          126 84 458 84 hintmask 11110011
          -84 callsubr
          hintmask 00001100
          72 516 -96 callgsubr
        </CharString>
        <CharString name="Otilde">
          -28 callsubr
          20 86 callsubr
          hintmask 11000000
          714 346 rmoveto
          208 44 -104 156 -157 -107 callsubr
          hintmask 00010000
          51 488 -95 callsubr
          hintmask 00010000
          37 callsubr
        </CharString>
        <CharString name="P">
          -20 callgsubr
        </CharString>
        <CharString name="Phi">
          679 21 -21 108 60 358 60 108 -20 hstemhm
          126 82 89 81 -58 81 -68 81 -5 81 -68 81 -58 81 92 82 hintmask 0000000001000000
          700 347 rmoveto
          24 114 -73 108 -148 19 rrcurveto
          hintmask 0001000000100000
          23 106 rlineto
          -81 hlineto
          hintmask 0000101001000000
          -23 -107 -146 -16 -125 -106 -25 -118 rlinecurve
          -25 -118 80 -106 139 -16 rrcurveto
          hintmask 1000010000000000
          -23 -107 rlineto
          81 hlineto
          hintmask 0010101010010000
          23 106 156 19 119 108 24 114 rlinecurve
          -367 -179 rmoveto
          -107 19 -35 79 17 81 17 81 69 79 115 19 rrcurveto
          hintmask 0100000100000000
          209 -179 rmoveto
          -16 -75 -65 -86 -123 -18 rrcurveto
          hintmask 0010000010010000
          76 358 116 -18 28 -86 -16 -75 rlinecurve
          endchar
        </CharString>
        <CharString name="Pi">
          663 21 -21 631 61 hstem
          88 84 318 84 vstem
          574 hmoveto
          147 692 rlineto
          -486 -26 callgsubr
          84 hlineto
          134 631 120 callsubr
          -134 -631 rlineto
          endchar
        </CharString>
        <CharString name="Psi">
          731 21 -21 108 63 382 60 81 -20 hstemhm
          323 81 -58 81 -68 81 31 81 hintmask 01110011
          795 552 rmoveto
          13 61 rlineto
          -70 hlineto
          -22 -26 0 -48 -25 hvcurveto
          -20 -39 -12 -55 -11 -54 -18 -83 -42 -131 -122 -32 112 523 rcurveline
          -81 hlineto
          -112 -523 -112 35 25 146 14 67 rlinecurve
          157 33 -8 37 -59 hhcurveto
          -70 hlineto
          -13 -61 56 -3 -5 -61 -17 -80 rlinecurve
          hintmask 00000100
          -29 -142 23 -135 149 -24 rrcurveto
          hintmask 10001000
          -23 -107 rlineto
          81 hlineto
          hintmask 00000100
          23 107 177 29 68 143 32 144 rlinecurve
          20 93 29 34 42 2 rrcurveto
          endchar
        </CharString>
        <CharString name="Q">
          693 -104 -21 109 63 600 63 hstem
          126 82 199 82 143 82 vstem
          13 callgsubr
          -209 -45 107 -153 155 hhcurveto
          35 31 8 8 23 hvcurveto
          57 -125 rlineto
          98 hlineto
          -79 162 143 99 46 134 17 76 rlinecurve
          -82 hmoveto
          -14 -64 -33 -107 -104 -82 -51 101 rcurveline
          -86 hlineto
          63 -139 rlineto
          -5 -15 -18 -3 -18 hhcurveto
          -108 -80 113 186 40 hvcurveto
          185 39 128 116 109 hhcurveto
          110 77 -117 -184 -39 hvcurveto
          endchar
        </CharString>
        <CharString name="R">
          35 callsubr
          16 callgsubr
          hintmask 11111100
          -98 callgsubr
          hintmask 00000010
          21 callgsubr
          endchar
        </CharString>
        <CharString name="Racute">
          35 callsubr
          67 -21 122 -20 16 callgsubr
          hintmask 1110011100000000
          -98 callgsubr
          hintmask 0000000010000000
          21 callgsubr
          hintmask 0001100000000000
          95 354 -96 callgsubr
        </CharString>
        <CharString name="Rcaron">
          35 callsubr
          57 -21 134 -20 16 callgsubr
          hintmask 1110011100000000
          -98 callgsubr
          hintmask 0000000010000000
          21 callgsubr
          hintmask 0001100000000000
          61 356 -83 callgsubr
        </CharString>
        <CharString name="Rcedilla">
          606 43 callsubr
          317 61 260 56 16 callgsubr
          hintmask 0011111100000000
          -98 callgsubr
          hintmask 1100000010000000
          21 callgsubr
          -269 -637 -92 callgsubr
        </CharString>
        <CharString name="Rcommaaccent">
          606 43 callsubr
          317 61 260 56 16 callgsubr
          hintmask 0011111100000000
          -98 callgsubr
          hintmask 0000000010000000
          21 callgsubr
          hintmask 1100000000000000
          -269 -637 -92 callgsubr
        </CharString>
        <CharString name="Rdblgrave">
          35 callsubr
          67 -21 176 -20 16 callgsubr
          hintmask 1110011100000000
          -98 callgsubr
          hintmask 0000000010000000
          21 callgsubr
          hintmask 0001100000000000
          -12 232 -89 callsubr
        </CharString>
        <CharString name="Rdotaccent">
          35 callsubr
          36 84 99 callsubr
          -44 -8 callgsubr
          60 82 -79 79 hintmask 1110110010000000
          -98 callgsubr
          hintmask 0000000001000000
          21 callgsubr
          hintmask 0001000100000000
          -81 222 -81 callgsubr
          hintmask 0001001000000000
          -53 callgsubr
        </CharString>
        <CharString name="Rdotbelow">
          606 -200 84 137 80 callsubr
          101 callsubr
          hintmask 0111101110000000
          -98 callgsubr
          hintmask 0000000001000000
          21 callgsubr
          hintmask 1000001000000000
          -279 -708 -81 callgsubr
          hintmask 1000010000000000
          -53 callgsubr
        </CharString>
        <CharString name="Rdotbelowmacron">
          606 -200 84 137 80 callsubr
          56 64 101 callsubr
          hintmask 0111010111000000
          -98 callgsubr
          hintmask 1000000100100000
          21 callgsubr
          -279 -708 -81 callgsubr
          hintmask 1000001000000000
          -18 -84 rlineto
          hintmask 0000100000000000
          413 950 -63 callgsubr
        </CharString>
        <CharString name="Rho">
          -20 callgsubr
        </CharString>
        <CharString name="S">
          125 callgsubr
          hstem
          510 191 rmoveto
          -102 callsubr
          endchar
        </CharString>
        <CharString name="S_S">
          1045 -16 68 592 66 hstem
          510 191 rmoveto
          -102 callsubr
          522 hmoveto
          -102 callsubr
          endchar
        </CharString>
        <CharString name="Sacute">
          125 callgsubr
          51 90 callsubr
          hintmask 11000000
          510 191 rmoveto
          -102 callsubr
          hintmask 00110000
          125 671 -96 callgsubr
        </CharString>
        <CharString name="Scaron">
          125 callgsubr
          41 -21 134 -20 hstemhm
          hintmask 11000000
          510 191 rmoveto
          -102 callsubr
          hintmask 00110000
          91 673 -83 callgsubr
        </CharString>
        <CharString name="Scedilla">
          125 callgsubr
          hstem
          510 191 rmoveto
          -102 callsubr
          -210 -225 4 callsubr
        </CharString>
        <CharString name="Scircumflex">
          125 callgsubr
          41 -21 134 -20 hstemhm
          hintmask 11000000
          510 191 rmoveto
          -102 callsubr
          hintmask 00110000
          62 539 -78 callsubr
        </CharString>
        <CharString name="Sdotbelow">
          522 -200 84 100 68 592 66 hstemhm
          177 -8 callgsubr
          hintmask 01100000
          510 191 rmoveto
          -102 callsubr
          hintmask 10001000
          -249 -391 -34 callsubr
        </CharString>
        <CharString name="Sigma">
          679 0 69 560 65 hstem
          626 hmoveto
          15 69 rlineto
          -225 hlineto
          -12 -13 -1 -12 hhcurveto
          -179 hlineto
          239 279 -149 283 rlineto
          191 hlineto
          12 12 -1 12 hhcurveto
          243 hlineto
          14 65 rlineto
          -574 hlineto
          -14 -64 154 -293 -288 -337 rlineto
          endchar
        </CharString>
        <CharString name="T">
          128 callgsubr
          hstem
          278 84 49 84 vstem
          -88 callgsubr
          endchar
        </CharString>
        <CharString name="T_uni0303">
          128 callgsubr
          36 86 callsubr
          278 84 49 84 hintmask 11001100
          -88 callgsubr
          hintmask 00010000
          43 221 -95 callsubr
          hintmask 00010000
          37 callsubr
        </CharString>
        <CharString name="T_uni0308">
          128 callgsubr
          36 75 hstemhm
          278 84 -7 76 -60 76 -36 84 24 76 -60 76 hintmask 1101001000000000
          -88 callgsubr
          hintmask 0010010000000000
          -183 104 rmoveto
          -77 callsubr
          hintmask 0010100010000000
          -63 callsubr
          hintmask 0010000100000000
          -16 -75 rlineto
          endchar
        </CharString>
        <CharString name="Tau">
          128 callgsubr
          hstem
          278 84 49 84 vstem
          -88 callgsubr
          endchar
        </CharString>
        <CharString name="Tcaron">
          128 callgsubr
          57 -21 134 -20 hstemhm
          278 84 49 84 hintmask 11001100
          -88 callgsubr
          hintmask 00110000
          46 238 -83 callgsubr
        </CharString>
        <CharString name="Tcedilla">
          641 -165 -21 168 -20 59 135 callgsubr
          hstem
          278 84 49 84 vstem
          -88 callgsubr
          -267 -644 4 callsubr
        </CharString>
        <CharString name="Tdotbelow">
          641 26 callgsubr
          626 68 hstemhm
          236 -8 callgsubr
          -60 84 49 84 hintmask 01100110
          -88 callgsubr
          hintmask 10001000
          -294 -826 -34 callsubr
        </CharString>
        <CharString name="Theta">
          731 -16 62 262 79 262 61 hstem
          126 81 464 81 vstem
          752 346 rmoveto
          205 43 -110 159 -169 hhcurveto
          -169 -178 -159 -205 -43 hvcurveto
          -208 -45 115 -154 166 76 callsubr
          -81 hmoveto
          -185 -40 -137 -115 -119 hhcurveto
          -119 -89 115 185 40 hvcurveto
          183 38 136 120 122 hhcurveto
          122 84 -121 -182 -38 hvcurveto
          -62 -38 rmoveto
          17 79 rlineto
          -358 hlineto
          -17 -79 rlineto
          endchar
        </CharString>
        <CharString name="Thorn">
          547 21 -21 178 48 282 48 127 -20 hstem
          99 60 vstem
          572 367 rmoveto
          82 17 -40 107 -143 hhcurveto
          -129 hlineto
          27 127 rlineto
          -60 hlineto
          -145 -683 rlineto
          60 hlineto
          38 178 rlineto
          139 hlineto
          116 99 90 99 21 hvcurveto
          -63 -1 rmoveto
          -65 -14 -73 -75 -103 hhcurveto
          -112 hlineto
          60 282 rlineto
          91 hlineto
          128 36 -81 -61 -13 hvcurveto
          endchar
        </CharString>
        <CharString name="Tlinebelow">
          641 -190 64 147 135 callgsubr
          hstemhm
          278 84 49 84 hintmask 01111000
          -88 callgsubr
          hintmask 10000000
          -164 -816 -2 callsubr
        </CharString>
        <CharString name="U">
          10 callsubr
          hstem
          25 callsubr
          vstem
          605 233 rmoveto
          98 461 -105 callsubr
          endchar
        </CharString>
        <CharString name="U_uni032F">
          644 -233 -21 127 66 45 56 654 -20 17 callgsubr
          hintmask 00111100
          605 233 rmoveto
          98 461 -105 callsubr
          hintmask 11000000
          -176 -487 -65 callgsubr
        </CharString>
        <CharString name="Uacute">
          10 callsubr
          87 -21 122 -20 17 callgsubr
          hintmask 11001100
          605 233 rmoveto
          98 461 -105 callsubr
          hintmask 00110000
          91 629 -96 callgsubr
        </CharString>
        <CharString name="Ubreve">
          10 callsubr
          66 66 127 -20 17 callgsubr
          hintmask 11001100
          605 233 rmoveto
          98 461 -105 callsubr
          hintmask 00110000
          76 700 -93 callgsubr
          endchar
        </CharString>
        <CharString name="Ucaron">
          10 callsubr
          77 -21 134 -20 17 callgsubr
          hintmask 11001100
          605 233 rmoveto
          98 461 -105 callsubr
          hintmask 00110000
          57 631 -83 callgsubr
        </CharString>
        <CharString name="Ucircumflex">
          10 callsubr
          77 -21 134 -20 17 callgsubr
          hintmask 11001100
          605 233 rmoveto
          98 461 -105 callsubr
          hintmask 00110000
          28 497 -78 callsubr
        </CharString>
        <CharString name="Udblgrave">
          10 callsubr
          87 -21 176 -20 17 callgsubr
          hintmask 11001100
          605 233 rmoveto
          98 461 -105 callsubr
          hintmask 00110000
          10 507 -89 callsubr
        </CharString>
        <CharString name="Udieresis">
          10 callsubr
          56 75 hstemhm
          236 84 37 7 callgsubr
          14 76 hintmask 1101000010000000
          605 233 rmoveto
          98 461 -105 callsubr
          hintmask 0010010000000000
          -172 497 rmoveto
          -77 callsubr
          hintmask 0010100100000000
          -63 callsubr
          hintmask 0010001000000000
          -16 -75 rlineto
          endchar
        </CharString>
        <CharString name="Udieresisacute">
          10 callsubr
          56 75 119 callsubr
          236 84 37 7 callgsubr
          14 76 hintmask 1100010000100000
          605 233 rmoveto
          98 461 -105 callsubr
          hintmask 0010000100000000
          -172 497 rmoveto
          -77 callsubr
          hintmask 0010001001000000
          -63 callsubr
          hintmask 0011100010000000
          -16 -75 rlineto
          198 243 -96 callgsubr
        </CharString>
        <CharString name="Udieresiscaron">
          10 callsubr
          56 75 57 -21 134 -20 hstemhm
          236 84 37 7 callgsubr
          14 76 hintmask 1100010000100000
          605 233 rmoveto
          98 461 -105 callsubr
          hintmask 0010000100000000
          -172 497 rmoveto
          -77 callsubr
          hintmask 0010001001000000
          -63 callsubr
          hintmask 0011100110000000
          -16 -75 rlineto
          164 245 -83 callgsubr
        </CharString>
        <CharString name="Udieresisgrave">
          10 callsubr
          56 75 119 callsubr
          236 84 37 7 callgsubr
          14 76 hintmask 1100010000100000
          605 233 rmoveto
          98 461 -105 callsubr
          hintmask 0010000100000000
          -172 497 rmoveto
          -77 callsubr
          hintmask 0010001001000000
          -63 callsubr
          hintmask 0011100010000000
          -16 -75 rlineto
          76 121 -66 callsubr
        </CharString>
        <CharString name="Udotbelow">
          644 -200 84 100 56 654 -20 hstemhm
          236 84 -83 -8 callgsubr
          288 76 hintmask 01110010
          605 233 rmoveto
          98 461 -105 callsubr
          hintmask 10000100
          -284 -433 rmoveto
          88 callgsubr
          endchar
        </CharString>
        <CharString name="Ugrave">
          10 callsubr
          87 -21 122 -20 17 callgsubr
          hintmask 11001100
          605 233 rmoveto
          98 461 -105 callsubr
          hintmask 00110000
          -31 507 -66 callsubr
        </CharString>
        <CharString name="Uhookabove">
          10 callsubr
          77 -21 211 -20 17 callgsubr
          hintmask 11001100
          605 233 rmoveto
          98 461 -105 callsubr
          hintmask 00110000
          -8 636 -100 callsubr
        </CharString>
        <CharString name="Uhorn">
          82 callgsubr
          28 callsubr
          hintmask 01000100
          22 callgsubr
          hintmask 11111000
          -16 -77 rlineto
          24 hlineto
          -53 -32 12 54 -105 callsubr
          77 366 rlineto
          endchar
        </CharString>
        <CharString name="Uhornacute">
          82 callgsubr
          12 -21 122 -20 28 callsubr
          hintmask 01000001
          22 callgsubr
          hintmask 11001110
          -16 -77 rlineto
          24 hlineto
          -53 -32 12 54 -105 callsubr
          77 366 rlineto
          hintmask 00110000
          -12 263 -96 callgsubr
        </CharString>
        <CharString name="Uhorndotbelow">
          647 -200 84 100 56 632 77 hstemhm
          237 84 -82 -8 callgsubr
          287 76 17 79 -63 79 hintmask 0010000010000000
          22 callgsubr
          hintmask 0111001100000000
          -16 -77 rlineto
          24 hlineto
          -53 -32 12 54 -105 callsubr
          77 366 rlineto
          hintmask 1000010000000000
          -360 -799 -81 callgsubr
          hintmask 1000100000000000
          -53 callgsubr
        </CharString>
        <CharString name="Uhorngrave">
          82 callgsubr
          12 -21 122 -20 28 callsubr
          hintmask 01000001
          22 callgsubr
          hintmask 11001110
          -16 -77 rlineto
          24 hlineto
          -53 -32 12 54 -105 callsubr
          77 366 rlineto
          hintmask 00110000
          -108 141 -66 callsubr
        </CharString>
        <CharString name="Uhornhookabove">
          82 callgsubr
          2 -21 211 -20 28 callsubr
          hintmask 01000001
          22 callgsubr
          hintmask 11001110
          -16 -77 rlineto
          24 hlineto
          -53 -32 12 54 -105 callsubr
          77 366 rlineto
          hintmask 00110000
          -85 270 -100 callsubr
        </CharString>
        <CharString name="Uhorntilde">
          82 callgsubr
          -19 61 -5 61 28 callsubr
          hintmask 01000001
          22 callgsubr
          hintmask 11001110
          -16 -77 rlineto
          24 hlineto
          -53 -32 12 54 -105 callsubr
          77 366 rlineto
          hintmask 00010000
          -23 248 -95 callsubr
          hintmask 00010000
          37 callsubr
        </CharString>
        <CharString name="Uhungarumlaut">
          10 callsubr
          87 -21 176 -20 17 callgsubr
          hintmask 11001100
          605 233 rmoveto
          98 461 -105 callsubr
          hintmask 00110000
          -89 683 -58 callgsubr
        </CharString>
        <CharString name="Umacron">
          10 callsubr
          76 64 17 callgsubr
          hintmask 11011000
          605 233 rmoveto
          98 461 -105 callsubr
          hintmask 00100000
          46 517 -63 callgsubr
        </CharString>
        <CharString name="Uogonek">
          644 -212 70 126 56 654 -20 hstemhm
          221 76 -61 73 callsubr
          hintmask 01110100
          605 233 rmoveto
          98 461 -67 callsubr
          -99 -462 rlineto
          -133 -28 -93 -59 -74 hhcurveto
          -76 -63 62 129 27 hvcurveto
          hintmask 00101000
          99 463 -21 callsubr
          -98 -461 -30 -138 80 -102 116 -8 rlinecurve
          -45 -29 -36 -40 -7 -43 rrcurveto
          hintmask 10010000
          46 callgsubr
          8 39 40 31 45 25 105 26 97 94 26 122 rrcurveto
          endchar
        </CharString>
        <CharString name="Upsilon">
          731 21 -21 647 63 hstem
          52 77 194 84 194 77 cntrmask 00111000
          796 555 rmoveto
          101 18 -64 54 -72 hhcurveto
          -108 -60 -103 -103 -37 hvcurveto
          -1 hlineto
          113 7 -22 93 -103 hhcurveto
          -72 -88 -54 -101 -24 hvcurveto
          76 hlineto
          56 14 40 36 42 hhcurveto
          87 13 -87 -163 -35 hvcurveto
          -84 -397 rlineto
          84 hlineto
          84 397 rlineto
          166 36 51 84 86 hhcurveto
          42 24 -35 -57 -10 hvcurveto
          endchar
        </CharString>
        <CharString name="Uring">
          10 callgsubr
          49 78 49 17 callgsubr
          hintmask 11011000
          605 233 rmoveto
          98 461 -105 callsubr
          hintmask 01100000
          -71 549 -72 callsubr
          endchar
        </CharString>
        <CharString name="Utilde">
          10 callsubr
          56 61 -5 61 17 callgsubr
          hintmask 11001100
          605 233 rmoveto
          98 461 -105 callsubr
          hintmask 00010000
          54 614 -95 callsubr
          hintmask 00010000
          37 callsubr
        </CharString>
        <CharString name="V">
          126 callsubr
          hstem
          759 694 rmoveto
          -78 hlineto
          -276 -480 -7 -14 -51 -92 -13 -32 rlinecurve
          -1 hlineto
          38 -13 89 -6 49 vhcurveto
          -47 325 -18 117 rlineto
          -88 hlineto
          107 -44 callgsubr
          88 hlineto
          endchar
        </CharString>
        <CharString name="W">
          886 50 callsubr
          -94 callgsubr
          endchar
        </CharString>
        <CharString name="Wacute">
          886 -12 callgsubr
          87 90 callsubr
          hintmask 11000000
          -94 callgsubr
          hintmask 00110000
          135 862 -96 callgsubr
        </CharString>
        <CharString name="Wcircumflex">
          886 -12 callgsubr
          77 -21 134 -20 hstemhm
          hintmask 11000000
          -94 callgsubr
          hintmask 00110000
          72 -4 callgsubr
        </CharString>
        <CharString name="Wdieresis">
          886 -12 callgsubr
          56 75 hstemhm
          478 7 callgsubr
          hintmask 11001010
          -94 callgsubr
          hintmask 00101000
          -128 730 53 callgsubr
        </CharString>
        <CharString name="Wgrave">
          886 -12 callgsubr
          87 90 callsubr
          hintmask 11000000
          -94 callgsubr
          hintmask 00110000
          13 740 -66 callsubr
        </CharString>
        <CharString name="X">
          2 callgsubr
        </CharString>
        <CharString name="Xi">
          627 0 70 -70 71 253 70 226 71 -70 70 hstemhm
          39 548 -533 548 hintmask 00010000
          714 620 rmoveto
          15 71 rlineto
          -538 hlineto
          -15 -71 rlineto
          117 hlineto
          hintmask 00001000
          152 1 rlineto
          hintmask 01010010
          152 -1 rlineto
          -10 -620 rmoveto
          15 71 rlineto
          -119 hlineto
          hintmask 10000000
          -155 -1 rlineto
          hintmask 01000010
          -155 1 rlineto
          -119 hlineto
          hintmask 01100100
          -15 -71 rlineto
          552 324 rmoveto
          15 70 rlineto
          -418 hlineto
          -15 -70 rlineto
          endchar
        </CharString>
        <CharString name="Y">
          126 callsubr
          hstemhm
          271 82 -23 82 hintmask 01010000
          -75 callsubr
          hintmask 10100000
          60 callgsubr
          hintmask 01010000
          59 277 rlineto
          endchar
        </CharString>
        <CharString name="Yacute">
          126 callsubr
          87 90 callsubr
          271 82 -23 82 hintmask 01000100
          -75 callsubr
          hintmask 10001000
          60 callgsubr
          hintmask 01000100
          59 277 rlineto
          hintmask 00110000
          274 585 -96 callgsubr
        </CharString>
        <CharString name="Ycircumflex">
          126 callsubr
          77 -21 134 -20 hstemhm
          271 82 -23 82 hintmask 01000100
          -75 callsubr
          hintmask 10001000
          60 callgsubr
          hintmask 01000100
          59 277 rlineto
          hintmask 00110000
          211 453 -78 callsubr
        </CharString>
        <CharString name="Ydieresis">
          126 callsubr
          56 75 hstemhm
          271 82 -23 82 -65 7 callgsubr
          hintmask 0100100000000000
          -75 callsubr
          hintmask 1001000000000000
          60 callgsubr
          hintmask 0100100000000000
          59 277 rlineto
          hintmask 0010001000000000
          11 453 rmoveto
          -77 callsubr
          hintmask 0010010010000000
          -63 callsubr
          hintmask 0010000100000000
          -16 -75 rlineto
          endchar
        </CharString>
        <CharString name="Ydotbelow">
          109 callsubr
          694 -20 hstemhm
          228 -8 callgsubr
          -59 82 -23 82 hintmask 00100010
          -75 callsubr
          hintmask 01000100
          60 callgsubr
          hintmask 00100010
          59 277 rlineto
          hintmask 10000010
          -100 -477 rmoveto
          18 84 rlineto
          hintmask 10001000
          -84 hlineto
          hintmask 10010000
          -53 callgsubr
        </CharString>
        <CharString name="Ygrave">
          126 callsubr
          87 90 callsubr
          271 82 -23 82 hintmask 01000100
          -75 callsubr
          hintmask 10001000
          60 callgsubr
          hintmask 01000100
          59 277 rlineto
          hintmask 00110000
          152 463 -66 callsubr
        </CharString>
        <CharString name="Yhookabove">
          126 callsubr
          77 -21 211 -20 hstemhm
          271 82 -23 82 hintmask 01000100
          -75 callsubr
          hintmask 10001000
          60 callgsubr
          hintmask 01000100
          59 277 rlineto
          hintmask 00110000
          175 592 -100 callsubr
        </CharString>
        <CharString name="Ytilde">
          126 callsubr
          56 86 callsubr
          271 82 -23 82 hintmask 01000100
          -75 callsubr
          hintmask 10001000
          60 callgsubr
          hintmask 01000100
          59 277 rlineto
          hintmask 00010000
          237 570 -95 callsubr
          hintmask 00010000
          37 callsubr
        </CharString>
        <CharString name="Z">
          81 callsubr
          hstem
          -75 callgsubr
          endchar
        </CharString>
        <CharString name="Zacute">
          81 callsubr
          119 callsubr
          hintmask 11000000
          -75 callgsubr
          hintmask 00110000
          609 862 -96 callgsubr
        </CharString>
        <CharString name="Zcaron">
          81 callsubr
          57 -21 134 -20 hstemhm
          hintmask 11000000
          -75 callgsubr
          hintmask 00110000
          575 864 -83 callgsubr
        </CharString>
        <CharString name="Zdotaccent">
          81 callsubr
          36 84 hstemhm
          401 -8 callgsubr
          hintmask 11000000
          -75 callgsubr
          hintmask 00101000
          433 730 -81 callgsubr
          hintmask 00110000
          -53 callgsubr
        </CharString>
        <CharString name="Zdotbelow">
          575 -200 84 116 66 565 63 hstemhm
          203 -8 callgsubr
          hintmask 01100000
          -75 callgsubr
          hintmask 10001000
          235 -200 -34 callsubr
        </CharString>
        <CharString name="Zeta">
          81 callsubr
          hstem
          -75 callgsubr
          endchar
        </CharString>
        <CharString name="a">
          -62 callgsubr
          hstem
          -107 callgsubr
          endchar
        </CharString>
        <CharString name="aacute">
          -62 callgsubr
          117 callsubr
          hintmask 11100000
          -107 callgsubr
          hintmask 00011000
          155 500 -77 callgsubr
        </CharString>
        <CharString name="abreve">
          -62 callgsubr
          68 66 127 -20 hstemhm
          hintmask 11100000
          -107 callgsubr
          hintmask 00011000
          -55 callgsubr
          endchar
        </CharString>
        <CharString name="abreveacute">
          -62 callgsubr
          68 66 284 -20 hstemhm
          hintmask 11100000
          -107 callgsubr
          hintmask 00011000
          -55 callgsubr
          17 157 -96 callgsubr
        </CharString>
        <CharString name="abrevedotbelow">
          55 callsubr
          68 66 127 -20 hstemhm
          141 -8 callgsubr
          hintmask 01111101
          -107 callgsubr
          -55 callgsubr
          hintmask 10000001
          -310 -903 -81 callgsubr
          hintmask 10000010
          -53 callgsubr
        </CharString>
        <CharString name="abrevegrave">
          -62 callgsubr
          68 66 127 -20 hstemhm
          hintmask 11100000
          -107 callgsubr
          hintmask 00011000
          -55 callgsubr
          -10 35 -42 callgsubr
        </CharString>
        <CharString name="abrevehookabove">
          -62 callgsubr
          68 66 287 66 hstemhm
          hintmask 11100000
          -107 callgsubr
          hintmask 00011000
          184 509 -45 callsubr
        </CharString>
        <CharString name="abrevetilde">
          -62 callgsubr
          68 66 182 86 callsubr
          hintmask 11100000
          -107 callgsubr
          hintmask 00010100
          -55 callgsubr
          33 172 -70 callgsubr
        </CharString>
        <CharString name="acaron">
          -62 callgsubr
          99 120 callgsubr
          hstemhm
          hintmask 11100000
          -107 callgsubr
          hintmask 00011000
          176 498 -80 callgsubr
        </CharString>
        <CharString name="acircumflex">
          -62 callgsubr
          99 120 callgsubr
          hstemhm
          hintmask 11100000
          -107 callgsubr
          hintmask 00011000
          140 326 -91 callsubr
          endchar
        </CharString>
        <CharString name="acircumflexacute">
          -62 callgsubr
          99 -21 291 -47 callsubr
          107 291 -96 callgsubr
        </CharString>
        <CharString name="acircumflexdotbelow">
          55 callsubr
          99 120 callgsubr
          hstemhm
          141 -8 callgsubr
          hintmask 01111101
          -107 callgsubr
          140 326 -91 callsubr
          hintmask 10000001
          -207 -720 -81 callgsubr
          hintmask 10000010
          -53 callgsubr
        </CharString>
        <CharString name="acircumflexgrave">
          -62 callgsubr
          99 -21 134 -47 callsubr
          81 169 -42 callgsubr
        </CharString>
        <CharString name="acircumflexhookabove">
          -62 callgsubr
          99 -21 360 -47 callsubr
          144 288 rmoveto
          4 21 -5 20 -13 66 callgsubr
          22 31 -24 callgsubr
          8 -7 3 -13 -3 -14 -3 51 callgsubr
          -38 21 callsubr
          -5 11 callgsubr
          5 20 6 28 23 16 43 25 rlinecurve
          5 2 18 11 13 17 4 19 rlinecurve
          endchar
        </CharString>
        <CharString name="acircumflextilde">
          -62 callgsubr
          99 -21 189 86 callsubr
          hintmask 11100000
          -107 callgsubr
          hintmask 00010100
          141 326 -27 callsubr
        </CharString>
        <CharString name="acute">
          470 539 45 callsubr
          hstem
          516 694 -77 callgsubr
        </CharString>
        <CharString name="acute.cap">
          470 497 104 callgsubr
          hstem
          553 598 -96 callgsubr
        </CharString>
        <CharString name="acute.dup">
          470 539 45 callsubr
          hstem
          516 694 -77 callgsubr
        </CharString>
        <CharString name="acute.ts1">
          97 callgsubr
          543 716 rmoveto
          -60 hlineto
          -132 -143 -43 -47 rlineto
          50 hlineto
          endchar
        </CharString>
        <CharString name="adblgrave">
          -62 callgsubr
          117 callsubr
          hintmask 11100000
          -107 callgsubr
          hintmask 00011000
          120 324 -89 callsubr
        </CharString>
        <CharString name="adieresis">
          -62 callgsubr
          127 75 hstemhm
          238 -13 callgsubr
          hintmask 11100000
          -107 callgsubr
          hintmask 00010100
          -37 375 51 callsubr
        </CharString>
        <CharString name="adotbelow">
          55 callsubr
          hstemhm
          141 -8 callgsubr
          hintmask 01110100
          -107 callgsubr
          hintmask 10000100
          -126 -394 rmoveto
          88 callgsubr
          endchar
        </CharString>
        <CharString name="ae">
          -72 callgsubr
        </CharString>
        <CharString name="ae.dup">
          -72 callgsubr
        </CharString>
        <CharString name="aeacute">
          679 -8 61 -45 55 53 59 44 55 107 61 -59 59 117 callsubr
          67 73 229 73 78 67 0 76 hintmask 1010010010010000
          699 219 rmoveto
          33 7 40 190 -159 hhcurveto
          -44 -58 -20 -51 -53 hvcurveto
          41 -18 -37 30 -63 hhcurveto
          -36 -54 -5 -35 -67 hvcurveto
          -8 -66 rlineto
          26 43 46 21 62 hhcurveto
          48 27 -37 -64 -14 hvcurveto
          -8 -36 rlineto
          -111 -155 -34 -96 -20 hvcurveto
          -34 -8 -1 -90 91 hhcurveto
          hintmask 0100000001000000
          4 61 0 16 55 hvcurveto
          24 7 43 13 33 35 rrcurveto
          hintmask 1000000000010000
          -5 3 41 -66 93 hhcurveto
          46 53 15 34 51 63 callgsubr
          hintmask 1011100011100000
          -40 -53 -54 -12 -36 hhcurveto
          -71 -45 67 99 20 hvcurveto
          219 55 rmoveto
          -201 hlineto
          68 33 55 39 44 hhcurveto
          38 37 -27 -80 -6 hvcurveto
          -311 -149 rmoveto
          -72 -16 -98 0 -9 hhcurveto
          -51 -25 30 34 7 hvcurveto
          14 66 145 7 44 2 -3 -17 rcurveline
          -2 -18 -3 -15 -3 -17 rrcurveto
          hintmask 0000001100000000
          288 569 -77 callgsubr
        </CharString>
        <CharString name="agrave">
          -62 callgsubr
          117 callsubr
          hintmask 11100000
          -107 callgsubr
          hintmask 00011000
          51 324 -33 callgsubr
        </CharString>
        <CharString name="ahookabove">
          -62 callgsubr
          80 -21 211 -20 hstemhm
          hintmask 11100000
          -107 callgsubr
          hintmask 00011000
          100 446 rmoveto
          -101 callsubr
        </CharString>
        <CharString name="amacron">
          -62 callgsubr
          132 64 hstemhm
          hintmask 11100000
          -107 callgsubr
          hintmask 00010000
          166 380 -63 callgsubr
        </CharString>
        <CharString name="ampersand">
          712 -16 64 601 61 hstem
          368 73 vstem
          659 -1 rmoveto
          14 66 rlineto
          -15 -53 -43 -2 -15 hhcurveto
          -21 -27 2 34 -39 hvcurveto
          7 5 134 97 90 191 -58 18 rcurveline
          -88 -180 -105 -75 -17 -12 -14 21 -56 87 -30 106 rrcurveto
          0 65 50 38 37 vhcurveto
          41 39 38 42 10 47 rrcurveto
          75 16 -33 78 -78 hhcurveto
          -86 -68 -93 -102 -22 hvcurveto
          -12 -60 1 -52 7 -56 -103 -80 rcurveline
          -18 -14 -49 -38 -15 -68 rrcurveto
          -85 -18 54 -78 103 hhcurveto
          69 71 23 33 59 hvcurveto
          -45 47 49 -11 43 hhcurveto
          14 42 1 14 56 hvcurveto
          -201 559 rmoveto
          -13 -58 -67 -55 -51 -41 -7 55 5 56 8 34 rrcurveto
          76 16 44 24 28 hhcurveto
          52 -12 -76 -15 -3 hvcurveto
          -90 -473 rmoveto
          -23 -47 -50 -14 -48 hhcurveto
          -69 -16 61 44 10 hvcurveto
          10 48 30 25 12 9 22 19 23 17 23 17 13 -47 36 -81 51 -75 rrcurveto
          endchar
        </CharString>
        <CharString name="anglearc">
          731 -43 -21 628 -20 hstem
          579 34 vstem
          682 17 rmoveto
          1 7 -3 6 -6 3 -124 53 rcurveline
          29 52 22 56 12 56 12 56 2 56 -7 52 146 53 rcurveline
          8 3 5 6 2 7 2 12 -10 8 -12 -4 -146 -53 rcurveline
          -10 40 -14 37 -20 35 rrcurveto
          4 -3 -4 2 -5 hhcurveto
          -9 -10 -8 -9 -2 hvcurveto
          -1 -4 1 -4 2 -3 18 -31 14 -35 8 -37 -460 -167 rcurveline
          -8 -3 -5 -6 -2 -7 -1 -7 2 -6 7 -3 389 -167 rcurveline
          -24 -37 -28 -35 -32 -31 -3 -3 -2 -4 -1 -4 rrcurveto
          118 callgsubr
          5 6 2 4 4 hvcurveto
          35 35 30 37 26 40 124 -53 rcurveline
          10 -4 14 8 3 12 rrcurveto
          -103 233 rmoveto
          -11 -52 -20 -51 -27 -48 -353 151 rcurveline
          417 152 7 -49 -2 -51 -11 -52 rlinecurve
          endchar
        </CharString>
        <CharString name="angleleft">
          104 callsubr
          264 -231 rmoveto
          2 vlineto
          14 -4 14 -1 13 vhcurveto
          -54 357 -9 54 -1 8 -3 10 1 9 rlinecurve
          1 4 3 4 2 4 11 19 rcurveline
          174 303 76 132 3 6 5 6 1 6 rlinecurve
          9 1 -7 7 -8 hhcurveto
          hintmask 11000000
          -5 -1 -16 -4 -9 -26 -9 -15 rlinecurve
          -79 -141 -87 -140 -77 -142 -6 -9 -9 -12 -2 -10 -2 -9 4 -10 1 -8 36 -234 rcurveline
          32 -212 rlineto
          -11 1 1 -15 14 hhcurveto
          9 10 10 8 2 hvcurveto
          endchar
        </CharString>
        <CharString name="angleright">
          104 callsubr
          315 251 rmoveto
          2 10 -3 10 -1 9 -9 58 rcurveline
          -55 363 rlineto
          16 -3 1 33 -18 hhcurveto
          hintmask 11000000
          -5 -1 -8 -2 -7 -8 -2 -8 rlinecurve
          -5 1 -5 1 -5 vhcurveto
          3 -23 54 -359 9 -56 1 -8 3 -10 -1 -9 rlinecurve
          -4 -3 -4 -2 -4 vhcurveto
          -49 -84 -211 -365 -3 -6 -5 -9 -1 -7 rlinecurve
          -7 -2 2 -10 14 hhcurveto
          17 2 10 26 9 16 81 141 rcurveline
          164 284 6 9 8 12 2 10 rlinecurve
          endchar
        </CharString>
        <CharString name="aogonek">
          451 -8 61 330 59 hstem
          382 -187 rmoveto
          65 callsubr
          11 hlineto
          60 283 rlineto
          94 20 -53 65 -90 hhcurveto
          -44 -50 -8 -32 -62 hvcurveto
          -8 -66 rlineto
          18 29 49 29 72 hhcurveto
          51 23 -39 -62 -13 hvcurveto
          -8 -38 -161 -5 -110 -46 -17 -79 rlinecurve
          -41 -8 7 -81 83 hhcurveto
          15 82 2 43 67 hvcurveto
          -8 -37 -56 -28 -50 -48 -8 -51 rlinecurve
          -68 callgsubr
          -44 319 rmoveto
          -4 -18 -5 -24 -34 -18 rrcurveto
          -17 -29 -34 -2 -14 hhcurveto
          -50 -28 28 35 8 hvcurveto
          15 70 157 7 31 1 rrcurveto
          endchar
        </CharString>
        <CharString name="aogonekacute">
          451 -8 61 330 59 117 callsubr
          hintmask 11000000
          382 -187 rmoveto
          65 callsubr
          11 hlineto
          60 283 rlineto
          94 20 -53 65 -90 hhcurveto
          -44 -50 -8 -32 -62 hvcurveto
          -8 -66 rlineto
          18 29 49 29 72 hhcurveto
          51 23 -39 -62 -13 hvcurveto
          -8 -38 -161 -5 -110 -46 -17 -79 rlinecurve
          -41 -8 7 -81 83 hhcurveto
          15 82 2 43 67 hvcurveto
          -8 -37 -56 -28 -50 -48 -8 -51 rlinecurve
          -68 callgsubr
          -44 319 rmoveto
          -4 -18 -5 -24 -34 -18 rrcurveto
          -17 -29 -34 -2 -14 hhcurveto
          -50 -28 28 35 8 hvcurveto
          15 70 157 7 31 1 rrcurveto
          hintmask 00110000
          155 500 -77 callgsubr
        </CharString>
        <CharString name="aring">
          -62 callgsubr
          65 49 78 49 hstemhm
          hintmask 11100000
          -107 callgsubr
          hintmask 00011000
          47 401 -80 callsubr
          endchar
        </CharString>
        <CharString name="aringacute">
          -62 callgsubr
          65 49 78 49 157 -20 hstemhm
          hintmask 11100000
          -107 callgsubr
          hintmask 00011100
          47 401 -80 callsubr
          91 245 -96 callgsubr
        </CharString>
        <CharString name="asciicircum">
          556 583 -21 123 59 hstem
          119 566 vstem
          685 584 rmoveto
          -249 160 -317 -160 6 -22 298 123 245 -123 rlineto
          endchar
        </CharString>
        <CharString name="asciitilde">
          556 193 132 callgsubr
          617 290 3 callsubr
          26 -17 -20 30 52 callgsubr
        </CharString>
        <CharString name="asciitilde.low">
          556 0 132 callgsubr
          576 97 3 callsubr
          25 -17 -20 31 52 callgsubr
        </CharString>
        <CharString name="asterisk">
          470 340 82 callsubr
          hstem
          276 67 10 67 vstem
          505 445 rmoveto
          4 19 -13 8 -7 4 -94 58 rcurveline
          120 58 13 7 11 10 3 14 rlinecurve
          20 5 -15 15 -16 hhcurveto
          -9 -8 -4 -6 -9 hvcurveto
          -107 -68 37 135 rlineto
          23 5 -15 11 -17 hhcurveto
          -14 -21 -10 -24 -5 hvcurveto
          -21 -135 -77 67 rlineto
          9 -11 -2 2 -9 hhcurveto
          -16 -21 -15 -20 -5 hvcurveto
          -4 -19 13 -8 7 -4 95 -58 rcurveline
          -121 -58 -13 -7 -11 -10 -3 -14 rlinecurve
          -20 -5 15 -15 16 hhcurveto
          9 8 4 6 9 hvcurveto
          107 68 -37 -135 rlineto
          -23 -5 15 -11 17 hhcurveto
          14 21 10 24 5 hvcurveto
          1 9 20 126 77 -67 rlineto
          -9 11 2 -2 9 hhcurveto
          16 21 15 20 5 hvcurveto
          endchar
        </CharString>
        <CharString name="asterisk.math">
          470 57 82 callsubr
          hstem
          152 200 vstem
          442 159 rmoveto
          3 17 -16 9 -11 7 -12 7 -11 8 -12 7 -35 23 rcurveline
          -7 5 -5 5 -9 3 1 2 rcurveline
          9 3 8 5 9 5 45 23 rcurveline
          27 13 50 17 5 25 rrcurveto
          14 3 -8 14 -16 hhcurveto
          -12 -13 -10 -7 -12 hvcurveto
          -105 -64 9 45 15 46 10 45 rlinecurve
          2 10 rlineto
          18 3 -8 12 -17 hhcurveto
          -11 -1 -13 -8 -5 -11 -5 -22 rcurveline
          -9 -45 -5 -44 -9 -45 -79 64 rcurveline
          7 -8 -9 10 -12 hhcurveto
          -16 -14 -14 -14 -3 hvcurveto
          -4 -17 16 -9 12 -7 11 -7 12 -8 11 -7 35 -23 rcurveline
          7 -5 6 -5 9 -3 -1 -2 rcurveline
          -9 -3 -9 -5 -9 -5 -45 -23 rcurveline
          -26 -13 -50 -17 -5 -25 rrcurveto
          -14 -3 8 -14 16 hhcurveto
          12 13 10 7 11 hvcurveto
          106 64 -10 -45 -14 -46 -10 -45 rlinecurve
          -2 -11 rlineto
          -18 -4 10 -11 16 hhcurveto
          11 1 13 8 5 11 5 22 rcurveline
          9 45 4 44 10 45 78 -64 rcurveline
          -7 9 9 -10 12 hhcurveto
          16 14 14 14 3 hvcurveto
          endchar
        </CharString>
        <CharString name="at">
          627 -8 61 69 61 328 61 69 61 hstem
          126 76 95 76 vstem
          591 87 rmoveto
          -47 hlineto
          -15 -2 0 -5 -11 hvcurveto
          -19 -46 -46 -10 -46 hhcurveto
          -134 -77 132 162 35 hvcurveto
          173 37 140 121 120 hhcurveto
          38 43 -20 -71 10 hvcurveto
          14 -21 -23 8 -26 hhcurveto
          -92 -104 -95 -130 -27 hvcurveto
          -130 -28 64 -95 91 hhcurveto
          60 126 53 188 40 hvcurveto
          83 18 54 256 -210 hhcurveto
          -161 -181 -149 -206 -44 hvcurveto
          -202 -43 112 -153 168 hhcurveto
          108 86 62 33 34 hvcurveto
          -20 260 rmoveto
          -94 -20 -61 -70 -53 hhcurveto
          -53 -31 70 94 20 hvcurveto
          94 20 61 70 53 hhcurveto
          53 31 -70 -94 -20 hvcurveto
          endchar
        </CharString>
        <CharString name="atilde">
          -62 callgsubr
          106 86 callsubr
          hintmask 11100000
          -107 callgsubr
          hintmask 00001000
          172 471 -88 callsubr
          6 -10 callgsubr
          16 -28 callgsubr
          58 45 callgsubr
        </CharString>
        <CharString name="b">
          80 callgsubr
          256 -20 hstem
          75 76 72 74 123 76 vstem
          84 callgsubr
          66 309 rlineto
          -74 hlineto
          -148 -694 -1 callgsubr
        </CharString>
        <CharString name="backslash">
          500 117 callgsubr
          hstem
          394 -230 rmoveto
          0 1 5 -2 13 vhcurveto
          -140 940 rlineto
          11 -2 -2 11 -14 hhcurveto
          -11 -10 -9 -11 -3 hvcurveto
          0 -1 -5 2 -13 vhcurveto
          141 -940 rlineto
          -11 1 2 -11 14 hhcurveto
          11 11 9 11 2 hvcurveto
          endchar
        </CharString>
        <CharString name="baht">
          626 0 56 274 61 242 61 -56 56 hstemhm
          259 64 -64 78 -64 64 cntrmask 00001110
          hintmask 10011110
          613 188 rmoveto
          16 76 -49 77 -112 22 138 38 42 76 10 43 17 84 -69 80 -122 9 14 65 rcurveline
          -64 hlineto
          -13 -64 rlineto
          -184 -89 callgsubr
          184 101 callgsubr
          64 hlineto
          14 64 rlineto
          1 hlineto
          136 118 90 98 21 hvcurveto
          -34 331 rmoveto
          -10 -50 -56 -55 -92 -17 rrcurveto
          hintmask 01101110
          51 236 74 -14 45 -46 -12 -54 rlinecurve
          -223 -128 rmoveto
          -103 hlineto
          hintmask 11011110
          53 247 rlineto
          103 hlineto
          125 -449 rmoveto
          -13 -62 -74 -60 -98 -10 58 271 rcurveline
          88 -12 53 -61 -14 -66 rrcurveto
          -249 -133 rmoveto
          -103 hlineto
          58 274 rlineto
          103 hlineto
          endchar
        </CharString>
        <CharString name="bar">
          278 117 callgsubr
          hstem
          73 40 158 40 vstem
          113 -217 rmoveto
          -5 callsubr
          endchar
        </CharString>
        <CharString name="bigcircle">
          694 0 34 626 34 hstem
          74 34 626 -92 callsubr
          endchar
        </CharString>
        <CharString name="blanksymbol">
          80 callgsubr
          256 -20 hstemhm
          75 76 72 74 -32 76 79 76 hintmask 01000100
          84 callgsubr
          34 161 109 86 -33 46 -57 -44 rlineto
          hintmask 11111010
          13 60 rlineto
          -74 hlineto
          -28 -129 -90 -70 34 -47 38 30 -102 -478 -1 callgsubr
        </CharString>
        <CharString name="braceleft">
          500 -229 -21 487 24 489 -20 hstem
          376 -239 rmoveto
          2 10 -6 0 -9 1 -78 5 -28 45 -1 36 -1 11 1 2 7 35 32 150 rcurveline
          6 30 11 51 10 vvcurveto
          1 66 -58 26 -37 11 125 34 15 71 6 28 39 180 rcurveline
          15 72 5 22 29 25 22 18 28 24 71 4 5 1 5 4 1 6 rrcurveto
          11 2 -8 0 -12 hhcurveto
          -100 -99 -51 -72 -18 hvcurveto
          -39 -183 -20 -94 -3 -16 -32 -28 rlinecurve
          -17 -14 -33 -27 -64 -4 rrcurveto
          -7 -7 -1 -10 -2 hvcurveto
          -2 -10 6 0 10 -1 42 -3 81 -21 -22 -100 -42 -198 rcurveline
          -12 -58 -7 -34 44 -37 rrcurveto
          -30 37 63 -8 31 hhcurveto
          12 8 0 11 2 hvcurveto
          endchar
        </CharString>
        <CharString name="braceright">
          500 -229 -21 510 -21 511 -20 hstem
          243 67 vstem
          480 250 rmoveto
          2 10 -6 0 -10 1 -42 3 -80 21 21 100 42 198 rcurveline
          12 58 7 34 -44 37 rrcurveto
          29 -36 -63 9 -32 hhcurveto
          -10 -10 0 -11 -2 hvcurveto
          -2 -10 6 0 10 -1 78 -5 27 -45 1 -36 1 -11 0 -2 -8 -35 -32 -150 rcurveline
          -6 -30 -11 -51 -10 vvcurveto
          -1 -66 58 -26 37 -11 -125 -34 -15 -71 -6 -28 -38 -180 rcurveline
          -16 -72 -4 -22 -30 -25 -22 -18 -28 -24 -70 -4 -6 -1 -5 -4 -1 -6 rrcurveto
          -11 -2 10 0 10 hhcurveto
          100 100 51 72 17 hvcurveto
          39 183 20 94 3 16 32 28 rlinecurve
          17 14 33 27 64 4 rrcurveto
          7 7 1 10 2 hvcurveto
          endchar
        </CharString>
        <CharString name="bracketleft">
          273 -249 61 876 61 hstem
          126 73 vstem
          199 -249 rmoveto
          13 61 rlineto
          -86 hlineto
          186 876 rlineto
          86 hlineto
          13 61 rlineto
          -159 hlineto
          -212 -998 rlineto
          endchar
        </CharString>
        <CharString name="bracketright">
          273 -249 61 876 61 hstem
          179 73 vstem
          126 -249 rmoveto
          212 998 rlineto
          -159 hlineto
          -13 -61 rlineto
          86 hlineto
          -186 -876 rlineto
          -86 hlineto
          -13 -61 rlineto
          endchar
        </CharString>
        <CharString name="breve">
          130 callgsubr
          127 -20 hstem
          545 -51 callsubr
          endchar
        </CharString>
        <CharString name="breve.cap">
          470 476 66 127 -20 hstem
          538 669 -93 callgsubr
          endchar
        </CharString>
        <CharString name="breve.ts1">
          575 516 52 148 -20 hstem
          231 50 316 50 vstem
          647 716 rmoveto
          -50 hlineto
          -86 -18 -92 -62 -80 hhcurveto
          -79 -65 61 87 18 hvcurveto
          -50 hlineto
          -114 -24 79 -86 111 hhcurveto
          102 122 76 124 26 hvcurveto
          endchar
        </CharString>
        <CharString name="brokenbar">
          278 117 callgsubr
          hstemhm
          73 40 39 40 0 40 39 40 hintmask 01001100
          232 343 rmoveto
          79 374 rlineto
          14 3 4 19 -20 hhcurveto
          -20 -4 -19 -14 -3 hvcurveto
          -79 -374 rlineto
          -15 -3 2 -17 14 hhcurveto
          14 10 17 15 3 hvcurveto
          -119 -560 rmoveto
          79 374 rlineto
          15 4 -3 17 -14 hhcurveto
          hintmask 10110000
          -14 -9 -17 -15 -4 hvcurveto
          -79 -374 rlineto
          -14 -3 -4 -19 20 hhcurveto
          20 4 19 14 3 hvcurveto
          endchar
        </CharString>
        <CharString name="bullet">
          731 142 254 hstemhm
          269 254 -200 254 hintmask 10100000
          114 callgsubr
          hintmask 11000000
          -54 -254 rlineto
          endchar
        </CharString>
        <CharString name="c">
          50 callgsubr
          hstem
          79 76 vstem
          -90 callsubr
          endchar
        </CharString>
        <CharString name="cacute">
          50 callgsubr
          117 callsubr
          79 76 hintmask 11001000
          -90 callsubr
          hintmask 00110000
          111 654 -77 callgsubr
        </CharString>
        <CharString name="caron">
          470 79 callgsubr
          537 692 -80 callgsubr
        </CharString>
        <CharString name="caron.cap">
          100 callsubr
          134 -20 hstem
          519 600 -83 callgsubr
        </CharString>
        <CharString name="caron.ts1">
          575 492 -21 261 -20 hstem
          608 732 rmoveto
          -50 -2 -45 -55 -113 -149 rlineto
          -2 hlineto
          -51 149 -21 55 -14 2 rlineto
          -34 hlineto
          5 -25 10 -24 8 -24 57 -171 rcurveline
          2 -5 1 -10 5 -2 rrcurveto
          34 hlineto
          17 6 16 13 10 hvcurveto
          40 57 44 56 43 55 15 21 18 21 15 22 rrcurveto
          endchar
        </CharString>
        <CharString name="ccaron">
          50 callgsubr
          99 120 callgsubr
          hstemhm
          79 76 hintmask 11001000
          -90 callsubr
          hintmask 00110000
          132 652 -80 callgsubr
        </CharString>
        <CharString name="ccedilla">
          50 callgsubr
          hstem
          79 76 vstem
          -90 callsubr
          -132 -74 4 callsubr
        </CharString>
        <CharString name="ccircumflex">
          50 callgsubr
          99 120 callgsubr
          hstemhm
          79 76 hintmask 11001000
          -90 callsubr
          hintmask 00110000
          96 480 -91 callsubr
          endchar
        </CharString>
        <CharString name="cdotaccent">
          50 callgsubr
          122 84 hstemhm
          79 76 153 -8 callgsubr
          hintmask 11010000
          -90 callsubr
          hintmask 00100100
          -8 524 -81 callgsubr
          hintmask 00101000
          -53 callgsubr
        </CharString>
        <CharString name="cedilla">
          418 -165 -21 168 -20 hstem
          261 -18 4 callsubr
        </CharString>
        <CharString name="cedilla.dup">
          418 -165 -21 168 -20 hstem
          261 -18 4 callsubr
        </CharString>
        <CharString name="cent">
          418 379 63 hstemhm
          79 76 29 64 -51 64 30 76 -64 64 -25 76 hintmask 10000010
          400 40 rmoveto
          8 66 -43 -28 -45 -17 -46 -5 rlinecurve
          68 322 43 -2 26 -12 35 -27 rlinecurve
          24 62 1 7 -41 20 -12 4 rlinecurve
          -20 8 -24 3 -18 1 rrcurveto
          hintmask 00000100
          11 53 rlineto
          -64 hlineto
          hintmask 01011000
          -12 -57 -109 -22 -82 -100 -21 -101 rlinecurve
          -23 -106 48 -93 93 -20 rrcurveto
          hintmask 00100000
          -13 -60 rlineto
          64 hlineto
          hintmask 01010000
          13 57 55 5 45 19 39 23 rlinecurve
          -189 22 rmoveto
          -51 19 -21 59 16 76 13 60 38 74 71 22 rrcurveto
          endchar
        </CharString>
        <CharString name="cent.oldstyle">
          50 callgsubr
          hstem
          79 76 4 76 vstem
          400 40 rmoveto
          8 66 rlineto
          -33 -50 -54 -18 -54 hhcurveto
          -11 -10 1 3 -9 hvcurveto
          155 315 25 -6 21 -12 25 -19 rlinecurve
          24 62 1 7 -41 20 -12 4 rlinecurve
          -4 2 -4 1 -5 1 30 61 rcurveline
          -67 hlineto
          -25 -53 rlineto
          -8 hlineto
          -130 -102 -113 -114 -24 hvcurveto
          -17 -79 23 -72 51 -40 -44 -88 rcurveline
          67 hlineto
          31 62 rlineto
          -4 14 15 -2 16 hhcurveto
          67 53 22 26 45 hvcurveto
          -88 339 rmoveto
          -142 -286 -20 29 -6 43 11 51 rlinecurve
          15 69 49 87 93 7 rrcurveto
          endchar
        </CharString>
        <CharString name="centigrade">
          810 -16 53 438 35 138 36 -35 35 hstemhm
          hintmask 11100000
          772 46 rmoveto
          3 16 -1 15 3 16 -18 -8 -16 -11 -18 -9 rrcurveto
          -21 -44 -43 -7 -45 hhcurveto
          -160 -43 166 138 29 hvcurveto
          131 28 109 176 163 hhcurveto
          60 46 -18 -27 44 hvcurveto
          25 63 rlineto
          23 -53 -55 11 -62 hhcurveto
          -12 hlineto
          -185 -11 -140 -182 -35 -164 rrcurveto
          -171 -36 66 -188 202 hhcurveto
          66 45 21 29 65 hvcurveto
          6 3 5 3 1 6 rrcurveto
          -440 533 rmoveto
          53 11 -29 52 -66 hhcurveto
          -9 hlineto
          -54 -7 -50 -43 -12 -54 rrcurveto
          -53 -11 29 -52 66 hhcurveto
          9 hlineto
          54 7 51 43 11 54 rrcurveto
          -35 hmoveto
          -37 -8 -40 -32 -36 hhcurveto
          -36 -22 27 35 2 hvcurveto
          1 8 rlineto
          hintmask 00010000
          37 8 40 32 36 hhcurveto
          36 22 -27 -35 -1 hvcurveto
          endchar
        </CharString>
        <CharString name="circumflex">
          470 79 callgsubr
          501 520 -91 callsubr
          endchar
        </CharString>
        <CharString name="circumflex.cap">
          100 callsubr
          134 -20 hstem
          58 callsubr
          endchar
        </CharString>
        <CharString name="circumflex.dup">
          470 79 callgsubr
          501 520 -91 callsubr
          endchar
        </CharString>
        <CharString name="colon">
          261 0 107 callsubr
          hintmask 01000100
          244 350 86 callgsubr
          hintmask 01001000
          -17 -80 rlineto
          6 -350 rmoveto
          hintmask 10010000
          24 callsubr
          hintmask 10100000
          -17 -80 rlineto
          endchar
        </CharString>
        <CharString name="colonmonetary">
          122 callgsubr
          58 64 41 64 19 64 72 callsubr
          -11 hlineto
          127 598 rlineto
          8 hlineto
          94 callsubr
          -9 hlineto
          17 80 rlineto
          -64 hlineto
          -19 -90 -149 -38 -127 -149 -35 -166 rlinecurve
          -35 -164 61 -151 135 -38 -19 -90 rcurveline
          64 hlineto
          17 80 rlineto
          10 hlineto
          80 40 14 42 73 hvcurveto
          -251 23 rmoveto
          -88 41 -29 121 26 122 27 128 85 116 100 40 rrcurveto
          endchar
        </CharString>
        <CharString name="comma">
          261 -104 -21 125 80 hstemhm
          90 129 callsubr
          170 1 18 callgsubr
          hintmask 11100000
          -52 callsubr
          endchar
        </CharString>
        <CharString name="copyleft">
          694 0 34 626 34 hstem
          74 34 626 -92 callsubr
          -126 hmoveto
          131 28 -63 116 -123 hhcurveto
          -41 -37 -8 -16 -44 hvcurveto
          -2 -55 rlineto
          30 49 36 5 31 hhcurveto
          89 43 -95 -108 -23 hvcurveto
          -102 -22 -78 -101 -97 hhcurveto
          -48 -27 9 32 -35 hvcurveto
          -1 -7 -5 -11 -1 -6 -6 -22 rcurveline
          -29 36 23 -9 54 hhcurveto
          126 110 117 129 28 hvcurveto
          endchar
        </CharString>
        <CharString name="copyright">
          694 0 34 626 34 hstem
          74 34 626 -92 callsubr
          -210 -208 rmoveto
          2 22 rlineto
          2 7 0 10 7 vvcurveto
          -32 -47 -30 -9 -48 hhcurveto
          -98 -35 102 101 22 hvcurveto
          108 23 82 95 90 hhcurveto
          30 34 -5 -30 35 hvcurveto
          22 55 rlineto
          16 -36 -34 7 -42 hhcurveto
          -122 -111 -115 -131 -28 hvcurveto
          -129 -28 60 -117 125 hhcurveto
          54 28 10 28 50 hvcurveto
          endchar
        </CharString>
        <CharString name="copyright.alt">
          645 -107 34 577 34 hstem
          46 34 124 52 401 34 vstem
          691 215 rmoveto
          198 42 -98 125 -198 hhcurveto
          -198 -151 -125 -198 -42 hvcurveto
          -198 -42 98 -124 198 hhcurveto
          198 151 124 198 42 hvcurveto
          -34 hmoveto
          -177 -38 -135 -111 -177 hhcurveto
          -177 -88 111 177 38 hvcurveto
          177 37 136 112 177 hhcurveto
          177 87 -112 -177 -37 hvcurveto
          -190 -190 rmoveto
          3 20 1 6 0 10 1 6 rlinecurve
          -29 -44 -28 -8 -44 hhcurveto
          -89 -31 92 93 20 hvcurveto
          99 21 75 86 82 hhcurveto
          27 32 -4 -27 32 hvcurveto
          20 49 rlineto
          15 -34 -30 7 -38 hhcurveto
          -112 -102 -105 -120 -25 hvcurveto
          -118 -25 54 -107 115 hhcurveto
          49 25 9 26 45 hvcurveto
          endchar
        </CharString>
        <CharString name="currency">
          731 28 34 8 34 292 34 hstem
          238 34 293 34 vstem
          593 28 rmoveto
          15 13 -9 11 -9 10 -56 73 rcurveline
          32 31 24 40 9 44 9 44 -6 39 -19 32 87 72 rcurveline
          12 9 14 12 -9 12 -10 13 -14 -11 -13 -11 -87 -72 rcurveline
          26 -26 -37 15 -43 hhcurveto
          -44 -43 -15 -26 -36 hvcurveto
          -58 73 -8 10 -9 12 -15 -12 rlinecurve
          -15 -13 9 -11 8 -11 57 -73 rcurveline
          -31 -31 -25 -40 -9 -43 -9 -43 7 -40 19 -31 -89 -74 rcurveline
          -12 -9 -14 -12 9 -12 10 -13 14 11 13 11 89 73 rcurveline
          -26 25 37 -15 44 hhcurveto
          43 43 15 26 37 hvcurveto
          57 -73 8 -10 9 -12 15 12 rlinecurve
          -28 222 rmoveto
          -81 -17 -80 -65 -80 hhcurveto
          -81 -52 65 81 17 hvcurveto
          81 17 80 65 81 hhcurveto
          80 52 -65 -81 -17 hvcurveto
          endchar
        </CharString>
        <CharString name="cwm">
          0 endchar
        </CharString>
        <CharString name="cwmascender">
          0 endchar
        </CharString>
        <CharString name="cwmcapital">
          0 endchar
        </CharString>
        <CharString name="d">
          80 callgsubr
          256 -20 hstem
          332 76 74 74 vstem
          -79 callsubr
          endchar
        </CharString>
        <CharString name="dagger">
          444 -195 -21 613 67 241 -20 hstemhm
          234 67 -43 67 -24 67 -39 67 hintmask 01101010
          478 430 75 callsubr
          5 20 7 28 25 65 12 37 14 37 8 37 rrcurveto
          8 2 7 33 -33 hhcurveto
          -34 -7 -32 -9 -2 hvcurveto
          -7 -35 -4 -58 -1 -24 -3 -46 -3 -32 -5 -29 33 callsubr
          hintmask 10010000
          4 1 26 7 20 2 -7 -25 -7 -20 -10 -25 -30 -72 -1 -8 -12 -53 -32 -151 -24 -168 -12 -95 rrcurveto
          -14 -2 0 -6 11 hhcurveto
          12 1 5 13 5 hvcurveto
          17 50 14 53 13 51 17 63 27 103 20 96 12 54 1 7 1 71 rrcurveto
          23 2 21 3 27 vhcurveto
          hintmask 01000100
          74 callgsubr
          endchar
        </CharString>
        <CharString name="daggerdbl">
          444 -184 -21 194 66 389 67 194 -20 hstem
          268 67 -5 67 -5 67 cntrmask 00001110
          488 477 75 callsubr
          7 30 14 34 6 14 13 33 16 40 6 28 rrcurveto
          7 1 7 32 -34 hhcurveto
          -10 -24 -3 -36 -7 hvcurveto
          -5 -20 -2 -29 -35 vvcurveto
          -2 -41 -1 -28 -4 -26 33 callsubr
          4 1 26 7 20 2 -7 -30 -14 -34 -6 -14 -13 -33 -16 -40 -6 -28 rrcurveto
          -35 -7 21 -4 11 hhcurveto
          30 9 25 14 3 hvcurveto
          5 20 2 29 35 vvcurveto
          2 41 1 28 4 26 74 callgsubr
          -96 -455 rmoveto
          17 3 -8 16 -21 hhcurveto
          -20 -18 -3 -8 -33 hvcurveto
          -27 -8 -8 -2 -22 -2 8 28 9 24 16 42 23 56 5 23 1 5 rrcurveto
          35 7 -21 4 -11 hhcurveto
          -30 -9 -25 -14 -3 hvcurveto
          -7 -29 -1 -43 -1 -34 1 -11 -2 -31 -4 -30 -23 2 -3 1 -37 11 rrcurveto
          9 -30 -17 0 -7 hhcurveto
          -25 -14 -20 -13 -2 hvcurveto
          -15 -4 7 -18 24 hhcurveto
          24 25 6 4 12 hvcurveto
          41 10 7 1 18 2 -8 -28 -10 -24 -15 -42 -23 -56 -5 -23 -1 -5 rrcurveto
          -35 -8 21 -4 11 hhcurveto
          30 10 25 14 3 hvcurveto
          6 29 1 43 1 34 rrcurveto
          11 1 31 5 30 vhcurveto
          22 -2 3 -1 38 -11 rrcurveto
          -9 31 18 0 5 hhcurveto
          24 13 18 15 4 hvcurveto
          endchar
        </CharString>
        <CharString name="dblbracketleft">
          379 -248 35 928 35 hstem
          184 35 162 35 vstem
          305 -248 rmoveto
          8 35 rlineto
          -94 hlineto
          197 928 rlineto
          94 hlineto
          7 35 rlineto
          -246 hlineto
          -212 -998 rlineto
          125 109 callgsubr
        </CharString>
        <CharString name="dblbracketright">
          379 -248 35 928 35 hstem
          69 35 162 35 vstem
          213 -248 rmoveto
          212 998 rlineto
          -245 hlineto
          -7 -35 rlineto
          93 hlineto
          -197 -928 rlineto
          -93 hlineto
          -8 -35 rlineto
          218 109 callgsubr
        </CharString>
        <CharString name="dblgrave.ts1">
          97 callgsubr
          319 526 95 callgsubr
          205 -2 95 callgsubr
          endchar
        </CharString>
        <CharString name="dblverticalbar">
          380 117 callgsubr
          hstem
          73 40 62 40 56 40 62 40 vstem
          113 -217 rmoveto
          -5 callsubr
          102 hmoveto
          -5 callsubr
          endchar
        </CharString>
        <CharString name="dcaron">
          80 callgsubr
          93 -21 112 72 hstem
          332 76 74 74 vstem
          -79 callsubr
          247 294 9 callgsubr
        </CharString>
        <CharString name="dcroat">
          80 callgsubr
          92 64 100 -20 hstemhm
          332 76 39 74 -61 74 -52 74 -35 76 -63 76 hintmask 0010000001000000
          597 530 rmoveto
          13 64 -67 callsubr
          hintmask 0001000100000000
          22 100 rlineto
          -74 hlineto
          hintmask 0010001000000000
          -22 -100 rlineto
          -140 hlineto
          -13 -64 rlineto
          hintmask 1110110000000000
          140 hlineto
          -31 -142 rlineto
          26 -25 -46 24 -56 hhcurveto
          -91 -93 -99 -124 -26 hvcurveto
          -124 -27 50 -99 89 hhcurveto
          69 54 37 21 29 hvcurveto
          -11 -50 rlineto
          76 hlineto
          113 530 rlineto
          hintmask 1110000010000000
          -161 -396 rmoveto
          -2 -14 -4 -15 -36 -27 rrcurveto
          -17 -24 -26 -8 -23 hhcurveto
          -54 -62 40 121 25 hvcurveto
          126 27 88 37 55 hhcurveto
          37 26 -18 -30 15 hvcurveto
          endchar
        </CharString>
        <CharString name="ddotbelow">
          484 56 callsubr
          61 324 61 256 -20 hstemhm
          157 -8 callgsubr
          73 76 74 74 hintmask 01110011
          -79 callsubr
          hintmask 10000100
          -161 -529 rmoveto
          88 callgsubr
          endchar
        </CharString>
        <CharString name="degree">
          353 433 34 193 34 hstem
          166 34 193 34 vstem
          427 564 rmoveto
          72 15 -46 58 -72 hhcurveto
          -72 -71 -58 -72 -15 hvcurveto
          -72 -15 45 -59 72 hhcurveto
          72 72 59 72 15 hvcurveto
          -34 hmoveto
          -54 -12 -52 -43 -54 hhcurveto
          -53 -34 43 54 12 hvcurveto
          53 11 52 43 53 hhcurveto
          54 34 -43 -53 -11 hvcurveto
          endchar
        </CharString>
        <CharString name="diameter">
          731 -48 34 528 34 hstem
          120 34 528 34 vstem
          794 546 rmoveto
          9 2 -6 8 -9 hhcurveto
          -5 -5 -2 -3 -3 hvcurveto
          -105 -86 rlineto
          47 -42 -64 29 -76 hhcurveto
          -165 -161 -133 -165 -35 hvcurveto
          -16 -76 14 -70 36 -53 -104 -86 rcurveline
          -4 -3 -3 -4 -1 -5 rrcurveto
          118 callgsubr
          5 5 2 3 3 hvcurveto
          105 86 rlineto
          -47 43 63 -28 76 hhcurveto
          165 161 133 165 35 hvcurveto
          16 76 -14 70 -36 52 105 86 rcurveline
          3 3 3 4 1 5 rrcurveto
          -112 -296 rmoveto
          -146 -31 -143 -118 -146 hhcurveto
          -67 -55 25 40 -38 hvcurveto
          451 373 31 -46 12 -61 -14 -67 rlinecurve
          -48 198 rmoveto
          -451 -373 -31 47 -12 61 14 67 rlinecurve
          146 31 143 118 146 hhcurveto
          67 56 -25 -41 37 hvcurveto
          endchar
        </CharString>
        <CharString name="died">
          470 -6 -21 386 54 -53 54 202 -20 hstemhm
          199 60 34 60 -17 60 hintmask 00100100
          494 360 rmoveto
          11 54 rlineto
          -152 hlineto
          hintmask 00010010
          43 202 rlineto
          -60 hlineto
          hintmask 11001100
          -43 -203 rlineto
          -153 hlineto
          -12 -54 rlineto
          153 hlineto
          -82 -386 rlineto
          60 hlineto
          hintmask 00100000
          83 387 rlineto
          endchar
        </CharString>
        <CharString name="dieresis">
          470 569 75 88 callsubr
          hintmask 10100000
          324 5 callgsubr
        </CharString>
        <CharString name="dieresis.cap">
          470 466 75 hstemhm
          214 7 callgsubr
          hintmask 10100000
          290 466 rmoveto
          -77 callsubr
          hintmask 11001000
          -63 callsubr
          hintmask 10010000
          -16 -75 rlineto
          endchar
        </CharString>
        <CharString name="dieresis.dup">
          470 569 75 88 callsubr
          hintmask 10100000
          324 5 callgsubr
        </CharString>
        <CharString name="dieresis.ts1">
          470 586 65 hstem
          301 586 rmoveto
          13 65 rlineto
          -65 hlineto
          -13 -65 rlineto
          247 hmoveto
          13 65 rlineto
          -65 hlineto
          -13 -65 rlineto
          endchar
        </CharString>
        <CharString name="discount">
          470 1 100 550 100 hstem
          225 100 vstem
          571 731 rmoveto
          10 3 -5 9 -10 hhcurveto
          0 -3 0 -2 -1 vhcurveto
          -12 -3 -12 -21 -8 -13 -372 -551 rcurveline
          -84 -125 -3 -5 -6 -6 -1 -6 rlinecurve
          -10 -2 7 -8 9 hhcurveto
          2 hlineto
          7 1 7 6 4 6 18 27 rcurveline
          382 566 25 39 28 38 26 39 rlinecurve
          1 2 1 3 3 vvcurveto
          -257 -55 rmoveto
          11 51 rlineto
          19 4 -11 5 -14 hhcurveto
          -47 hlineto
          -4 -4 0 -1 -4 hvcurveto
          -11 -2 -6 -6 -3 -13 -12 -57 rcurveline
          -20 -4 12 -1 12 hhcurveto
          61 hlineto
          12 3 6 12 2 10 rrcurveto
          92 -649 rmoveto
          9 45 rlineto
          19 4 -3 10 -21 hhcurveto
          -51 hlineto
          -4 -3 0 -1 -3 hvcurveto
          -6 -2 -6 -5 -4 -6 -13 -63 rcurveline
          -19 -4 9 -4 13 hhcurveto
          53 hlineto
          16 10 7 19 4 hvcurveto
          endchar
        </CharString>
        <CharString name="divide">
          731 90 80 0 80 -17 35 64 80 hstemhm
          344 80 -63 80 -45 80 -63 80 hintmask 00100000
          731 250 89 callgsubr
          hintmask 01000000
          -17 -17 0 -18 -4 hvcurveto
          hintmask 00100000
          -17 -3 126 callgsubr
          hintmask 01010001
          15 15 0 17 3 hvcurveto
          -255 82 86 callgsubr
          hintmask 00010010
          -17 -80 rlineto
          28 -242 rmoveto
          hintmask 01000100
          24 callsubr
          hintmask 10001000
          -17 -80 rlineto
          endchar
        </CharString>
        <CharString name="divorced">
          470 -83 -21 140 55 320 55 -55 56 139 -20 hstemhm
          141 59 -17 60 91 60 -19 59 154 59 hintmask 0001000001000000
          708 253 rmoveto
          91 19 -33 123 -106 hhcurveto
          hintmask 0110000010000000
          -4 -4 -1 -4 hhcurveto
          -102 -11 -78 -107 -21 -97 rrcurveto
          -96 -20 33 -119 108 hhcurveto
          11 hlineto
          104 11 76 110 21 96 rrcurveto
          -508 -3 rmoveto
          hintmask 0001000000000000
          94 20 -31 123 -109 hhcurveto
          hintmask 0110110100000000
          -4 -4 -1 -4 hhcurveto
          -104 -11 -75 -111 -20 -94 rrcurveto
          -93 -20 32 -121 107 hhcurveto
          11 hlineto
          103 11 78 107 20 96 rrcurveto
          43 -354 rmoveto
          151 710 rlineto
          -60 hlineto
          hintmask 1110001000000000
          -151 -710 rlineto
          -42 352 rmoveto
          -61 -13 -44 -96 -84 hhcurveto
          -73 -12 77 66 6 hvcurveto
          2 11 rlineto
          59 13 42 107 88 hhcurveto
          68 20 -72 -64 -8 hvcurveto
          hintmask 0110010011000000
          505 -26 rmoveto
          -1 -5 -1 -6 -2 -5 rrcurveto
          -65 -19 -49 -77 -73 hhcurveto
          -76 -11 90 67 15 hvcurveto
          5 27 rlineto
          56 17 47 80 68 hhcurveto
          85 10 -93 -69 -15 hvcurveto
          endchar
        </CharString>
        <CharString name="dlinebelow">
          484 -190 64 118 61 324 61 256 -20 hstemhm
          332 76 74 74 hintmask 01111100
          -79 callsubr
          hintmask 10000000
          -30 -519 -2 callsubr
        </CharString>
        <CharString name="dollar">
          470 -34 -21 48 68 0 67 0 67 318 68 53 67 48 -20 hstemhm
          194 58 -47 58 14 71 -54 71 -24 58 -44 58 -48 58 hintmask 0000000001000000
          458 195 rmoveto
          17 80 -23 98 -104 23 rrcurveto
          hintmask 0000100000010000
          51 241 54 -5 35 -25 24 -26 rlinecurve
          25 62 rlineto
          hintmask 0000010000001000
          1 4 -42 47 -83 7 rrcurveto
          hintmask 0000001000000100
          10 48 rlineto
          -58 hlineto
          hintmask 0101100010001000
          -10 -49 -98 -17 -77 -82 -19 -88 rlinecurve
          -9 -42 -7 -113 130 -33 -57 -267 rcurveline
          -55 6 -49 24 -33 40 -26 -67 rcurveline
          32 -31 46 -29 72 -8 rrcurveto
          hintmask 1000000100000000
          -11 -48 rlineto
          58 hlineto
          hintmask 0001010010010000
          11 50 104 20 73 92 18 88 rlinecurve
          -164 217 rmoveto
          -50 15 -20 47 10 49 10 44 36 51 61 16 rrcurveto
          hintmask 0000000000100000
          44 -449 rmoveto
          hintmask 0010000001000000
          -9 -45 -35 -60 -64 -19 53 248 rcurveline
          56 -19 9 -60 -10 -45 rrcurveto
          endchar
        </CharString>
        <CharString name="dollar.oldstyle">
          574 -12 -21 28 51 287 52 -38 51 217 51 0 51 -46 52 -25 52 hstemhm
          324 48 0 48 0 48 cntrmask 0000000011100000
          hintmask 0010100111100000
          564 196 rmoveto
          18 85 -47 70 -80 30 rrcurveto
          -10 4 -1 0 0 vvcurveto
          60 281 32 -3 35 -14 28 -16 rlinecurve
          29 -18 13 36 rlineto
          2 3 2 3 4 vvcurveto
          5 19 -86 32 -49 7 6 31 rcurveline
          -48 hlineto
          hintmask 0000001011100000
          -5 -27 rlineto
          -53 hlineto
          hintmask 0000000111100000
          5 27 rlineto
          -48 hlineto
          hintmask 0000010011100000
          -7 -33 rlineto
          hintmask 1100000111100000
          0 -32 -11 -18 -8 vhcurveto
          -65 -27 -68 -60 -15 -72 -14 -66 29 -56 50 -31 17 -11 24 -12 16 -5 -65 -306 rcurveline
          -40 3 -41 20 -32 19 -13 7 -9 10 -13 6 -14 -36 rcurveline
          -1 -3 -2 -3 -1 -4 -6 -30 139 -37 8 -2 rrcurveto
          10 -2 4 -1 0 vvcurveto
          -7 -32 rlineto
          48 hlineto
          6 28 rlineto
          53 hlineto
          -6 -28 rlineto
          48 hlineto
          8 37 51 5 74 52 38 51 rlinecurve
          18 26 13 29 7 29 rrcurveto
          -165 202 rmoveto
          -50 14 rlineto
          hintmask 0101001011100000
          55 259 rlineto
          53 hlineto
          -153 -245 rmoveto
          -44 21 -50 31 13 64 13 61 61 36 56 22 rrcurveto
          152 -472 rmoveto
          -13 -62 -54 -44 -64 -25 56 261 rcurveline
          42 -22 49 -34 -16 -74 rrcurveto
          -181 -143 rmoveto
          -53 hlineto
          64 301 rlineto
          hintmask 0110000011100000
          50 -14 rlineto
          endchar
        </CharString>
        <CharString name="dong">
          484 -64 64 hstem
          574 538 rmoveto
          13 61 rlineto
          -72 hlineto
          21 95 rlineto
          -71 hlineto
          -21 -95 rlineto
          -133 hlineto
          -13 -61 rlineto
          133 hlineto
          -28 -135 rlineto
          25 -24 -44 23 -53 hhcurveto
          -86 -89 -94 -118 -25 hvcurveto
          -118 -25 48 -94 84 hhcurveto
          66 51 35 20 26 hvcurveto
          -10 -47 rlineto
          73 hlineto
          107 503 rlineto
          -56 -602 134 callsubr
          -429 101 callgsubr
          332 226 rmoveto
          -2 -13 -4 -15 -34 -25 rrcurveto
          -16 -22 -25 -8 -22 hhcurveto
          -51 -59 38 115 25 hvcurveto
          120 25 84 35 52 hhcurveto
          35 24 -17 -29 14 hvcurveto
          endchar
        </CharString>
        <CharString name="dotaccent">
          261 564 84 hstemhm
          209 -8 callgsubr
          hintmask 10100000
          293 110 callsubr
          hintmask 11000000
          -53 callgsubr
        </CharString>
        <CharString name="dotaccent.alt">
          261 520 84 hstemhm
          200 84 -67 84 hintmask 10100000
          284 520 rmoveto
          17 84 -21 callsubr
          hintmask 11000000
          -17 -84 rlineto
          endchar
        </CharString>
        <CharString name="dotaccent.cap">
          261 466 84 hstemhm
          188 -8 callgsubr
          hintmask 10100000
          272 466 -81 callgsubr
          hintmask 11000000
          -53 callgsubr
        </CharString>
        <CharString name="dotlessi">
          3 callgsubr
          hstem
          91 callgsubr
          vstem
          -60 callgsubr
          endchar
        </CharString>
        <CharString name="dotlessj">
          44 callgsubr
          hstem
          191 74 vstem
          -71 callsubr
          endchar
        </CharString>
        <CharString name="e">
          -37 callgsubr
          hstem
          -106 callgsubr
          endchar
        </CharString>
        <CharString name="eacute">
          -37 callgsubr
          117 callsubr
          hintmask 11100000
          -106 callgsubr
          hintmask 00011000
          107 420 -77 callgsubr
        </CharString>
        <CharString name="ebreve">
          -37 callgsubr
          68 66 127 -20 hstemhm
          hintmask 11100000
          -106 callgsubr
          hintmask 00011000
          136 429 -3 callsubr
        </CharString>
        <CharString name="ecaron">
          -37 callgsubr
          99 120 callgsubr
          hstemhm
          hintmask 11100000
          -106 callgsubr
          hintmask 00011000
          128 418 -80 callgsubr
        </CharString>
        <CharString name="ecircumflex">
          -37 callgsubr
          99 120 callgsubr
          hstemhm
          hintmask 11100000
          -106 callgsubr
          hintmask 00011000
          92 246 -91 callsubr
          endchar
        </CharString>
        <CharString name="ecircumflexacute">
          -37 callgsubr
          99 -21 291 -43 callsubr
          107 291 -96 callgsubr
        </CharString>
        <CharString name="ecircumflexdotbelow">
          418 56 callsubr
          -19 callsubr
          99 120 callgsubr
          hstemhm
          124 -8 callgsubr
          hintmask 01111100
          -106 callgsubr
          92 246 -91 callsubr
          hintmask 10000001
          -208 -720 -81 callgsubr
          hintmask 10000010
          -53 callgsubr
        </CharString>
        <CharString name="ecircumflexgrave">
          -37 callgsubr
          99 -21 134 -43 callsubr
          81 169 -42 callgsubr
        </CharString>
        <CharString name="ecircumflexhookabove">
          -37 callgsubr
          99 -21 360 -43 callsubr
          144 288 rmoveto
          4 21 -5 20 -13 66 callgsubr
          22 31 -24 callgsubr
          8 -7 3 -13 -3 -14 -3 51 callgsubr
          -38 21 callsubr
          -5 11 callgsubr
          5 20 6 28 23 16 43 25 rlinecurve
          5 2 18 11 13 17 4 19 rlinecurve
          endchar
        </CharString>
        <CharString name="ecircumflextilde">
          -37 callgsubr
          99 -21 189 86 callsubr
          hintmask 11100000
          -106 callgsubr
          hintmask 00010100
          93 246 -27 callsubr
        </CharString>
        <CharString name="edblgrave">
          -37 callgsubr
          117 callsubr
          hintmask 11100000
          -106 callgsubr
          hintmask 00011000
          72 244 -89 callsubr
        </CharString>
        <CharString name="edieresis">
          -37 callgsubr
          127 75 hstemhm
          222 -13 callgsubr
          hintmask 11100010
          -106 callgsubr
          hintmask 00010100
          -85 295 51 callsubr
        </CharString>
        <CharString name="edotaccent">
          -37 callgsubr
          122 84 hstemhm
          287 -8 callgsubr
          hintmask 11100000
          -106 callgsubr
          hintmask 00010100
          -12 290 -81 callgsubr
          hintmask 00011000
          -53 callgsubr
        </CharString>
        <CharString name="edotbelow">
          418 56 callsubr
          -19 callsubr
          hstemhm
          124 -8 callgsubr
          hintmask 01110000
          -106 callgsubr
          hintmask 10000100
          -175 -474 rmoveto
          88 callgsubr
          endchar
        </CharString>
        <CharString name="egrave">
          -37 callgsubr
          117 callsubr
          hintmask 11100000
          -106 callgsubr
          hintmask 00011000
          3 244 -33 callgsubr
        </CharString>
        <CharString name="ehookabove">
          -37 callgsubr
          80 -21 211 -20 hstemhm
          hintmask 11100000
          -106 callgsubr
          hintmask 00011000
          52 366 rmoveto
          -101 callsubr
        </CharString>
        <CharString name="eight">
          470 84 callsubr
          hstem
          78 78 2 84 149 78 vstem
          469 -43 callgsubr
        </CharString>
        <CharString name="eight.oldstyle">
          531 84 callsubr
          hstemhm
          109 131 callsubr
          500 -45 callgsubr
        </CharString>
        <CharString name="eight.prop">
          531 84 callsubr
          hstem
          109 78 2 84 149 78 vstem
          500 -43 callgsubr
        </CharString>
        <CharString name="eight.taboldstyle">
          470 84 callsubr
          hstemhm
          78 131 callsubr
          469 -45 callgsubr
        </CharString>
        <CharString name="ellipsis">
          592 0 80 hstem
          91 80 85 80 85 80 cntrmask 01110000
          171 hmoveto
          24 callsubr
          -17 -80 rlineto
          245 hmoveto
          24 callsubr
          -17 -80 rlineto
          245 hmoveto
          24 callsubr
          -17 -80 rlineto
          endchar
        </CharString>
        <CharString name="emacron">
          -37 callgsubr
          132 64 hstemhm
          hintmask 11100000
          -106 callgsubr
          hintmask 00010000
          118 300 -63 callgsubr
        </CharString>
        <CharString name="emdash">
          940 235 61 hstemhm
          50 939 -926 939 hintmask 10100000
          989 235 rmoveto
          13 61 rlineto
          -939 hlineto
          hintmask 11000000
          -13 -61 rlineto
          endchar
        </CharString>
        <CharString name="emdash.alt">
          627 242 50 hstem
          677 242 rmoveto
          11 50 rlineto
          -626 hlineto
          -11 -50 rlineto
          endchar
        </CharString>
        <CharString name="endash">
          470 235 61 hstemhm
          50 469 -456 469 hintmask 10100000
          519 235 rmoveto
          13 61 rlineto
          -469 hlineto
          hintmask 11000000
          -13 -61 rlineto
          endchar
        </CharString>
        <CharString name="eng">
          484 -205 64 518 61 125 callsubr
          hintmask 01010000
          -70 callsubr
          hintmask 11101000
          -92 -433 -86 callsubr
          -67 -14 -26 -74 -57 hhcurveto
          -14 -64 rlineto
          93 72 102 103 22 hvcurveto
          endchar
        </CharString>
        <CharString name="eogonek">
          418 -212 70 134 -19 callsubr
          hstemhm
          245 71 -68 63 hintmask 11011000
          -7 callgsubr
          hintmask 01110100
          1 callgsubr
          endchar
        </CharString>
        <CharString name="eogonekacute">
          418 -212 70 134 -19 callsubr
          117 callsubr
          245 71 -68 63 hintmask 11010010
          -7 callgsubr
          hintmask 01110001
          1 callgsubr
          hintmask 00001100
          107 420 -77 callgsubr
        </CharString>
        <CharString name="equal">
          731 143 35 143 35 hstemhm
          86 626 -588 626 hintmask 11010000
          750 338 89 callgsubr
          -17 -17 0 -18 -4 hvcurveto
          -17 -4 126 callgsubr
          15 15 0 17 4 hvcurveto
          -38 -177 rmoveto
          17 4 -15 0 -15 hhcurveto
          -566 hlineto
          hintmask 10100000
          115 callsubr
          558 hlineto
          17 17 0 18 4 hvcurveto
          endchar
        </CharString>
        <CharString name="ereversed">
          -37 callgsubr
          hstem
          437 217 rmoveto
          127 27 -67 98 -104 hhcurveto
          -43 -60 -16 -57 -48 hvcurveto
          -43 -53 -15 -64 -7 -33 rrcurveto
          290 hlineto
          -112 -27 -81 -54 -64 hhcurveto
          -40 -52 13 39 -40 hvcurveto
          -1 -4 -10 -33 0 vvcurveto
          0 -7 -23 -1 -4 vhcurveto
          -36 42 52 -13 45 hhcurveto
          115 113 101 124 26 hvcurveto
          -67 57 rmoveto
          -216 hlineto
          105 41 70 2 15 hhcurveto
          56 33 -52 -55 1 hvcurveto
          endchar
        </CharString>
        <CharString name="estimated">
          627 -7 50 313 46 244 50 hstem
          542 70 vstem
          676 356 rmoveto
          21 99 3 111 -63 69 rrcurveto
          40 -38 -59 21 -63 hhcurveto
          -143 -133 -117 -133 -62 hvcurveto
          -17 -37 -11 -38 -8 -38 rrcurveto
          -165 -34 86 -175 184 hhcurveto
          79 87 15 32 80 hvcurveto
          7 3 13 2 2 10 rrcurveto
          3 0 5 0 vhcurveto
          5 36 -24 -8 -22 -10 -24 -8 rlinecurve
          -19 -63 -65 -11 -61 hhcurveto
          -109 -68 83 108 -12 hvcurveto
          -5 40 6 40 9 42 rrcurveto
          449 46 rmoveto
          -436 hlineto
          32 105 113 133 123 6 rrcurveto
          8 hlineto
          109 54 -80 -100 2 hvcurveto
          -21 -3 -22 -2 -21 vhcurveto
          endchar
        </CharString>
        <CharString name="eth">
          470 -8 52 348 50 hstem
          475 213 rmoveto
          36 155 -31 147 -87 101 88 59 rcurveline
          -21 39 -98 -66 -30 27 -34 23 -39 17 rlinecurve
          -36 -41 33 -16 30 -20 26 -23 rlinecurve
          -88 -59 22 -39 98 66 44 -48 30 -60 12 -69 rlinecurve
          27 -33 -36 9 -32 hhcurveto
          -107 -111 -102 -126 -27 hvcurveto
          -129 -27 73 -93 102 hhcurveto
          95 116 82 139 32 hvcurveto
          -52 5 rmoveto
          -95 -20 -75 -79 -84 hhcurveto
          -79 -49 69 110 23 hvcurveto
          110 24 81 59 73 hhcurveto
          86 41 -79 -95 -21 hvcurveto
          endchar
        </CharString>
        <CharString name="etilde">
          -37 callgsubr
          106 86 callsubr
          hintmask 11100000
          -106 callgsubr
          hintmask 00001000
          124 391 -88 callsubr
          6 -10 callgsubr
          16 -28 callgsubr
          58 45 callgsubr
        </CharString>
        <CharString name="eturned">
          -30 callgsubr
        </CharString>
        <CharString name="exclam">
          300 0 80 110 -21 525 -20 hstemhm
          110 80 -63 80 51 80 hintmask 11101100
          338 694 rmoveto
          -80 hlineto
          -104 -525 rlineto
          64 hlineto
          -28 -169 86 callgsubr
          hintmask 10010000
          -17 -80 rlineto
          endchar
        </CharString>
        <CharString name="exclamdown">
          300 -174 -21 526 -20 109 80 hstemhm
          69 80 50 80 -63 80 hintmask 00100100
          279 420 86 callgsubr
          hintmask 11111000
          -17 -80 rlineto
          -50 -615 rmoveto
          103 526 rlineto
          -64 hlineto
          -119 -526 rlineto
          endchar
        </CharString>
        <CharString name="f">
          -18 callsubr
        </CharString>
        <CharString name="f_f">
          549 43 callgsubr
          hstem
          94 74 5 74 107 74 vstem
          460 118 callsubr
          2 -11 -29 6 -33 hhcurveto
          -92 -83 -75 -100 -21 hvcurveto
          -21 -97 -20 callsubr
          103 hlineto
          12 58 rlineto
          -105 hlineto
          28 128 rlineto
          69 14 55 14 34 hhcurveto
          35 27 -9 -4 10 hvcurveto
          260 hmoveto
          15 66 rlineto
          2 -11 -29 6 -33 hhcurveto
          -92 -83 -75 -100 -21 hvcurveto
          -112 -527 rlineto
          74 hlineto
          79 372 rlineto
          103 hlineto
          12 58 rlineto
          -105 hlineto
          28 128 rlineto
          69 14 55 14 34 hhcurveto
          35 27 -9 -4 10 hvcurveto
          endchar
        </CharString>
        <CharString name="f_f_i">
          764 95 callsubr
          186 74 186 74 cntrmask 00000111
          hintmask 11010111
          822 615 86 callgsubr
          -17 -80 rlineto
          -54 -615 rmoveto
          73 callgsubr
          -74 hlineto
          -91 -430 rlineto
          2 372 rmoveto
          12 58 93 callsubr
          hintmask 00100111
          28 131 rlineto
          53 12 29 27 32 hhcurveto
          22 20 -7 -7 10 hvcurveto
          hintmask 00010111
          15 68 rlineto
          hintmask 11001111
          5 -17 -8 2 -29 hhcurveto
          -75 -69 -76 -97 -21 hvcurveto
          -112 -529 rlineto
          74 hlineto
          79 372 rlineto
          -74 256 -2 callgsubr
          endchar
        </CharString>
        <CharString name="f_f_l">
          764 43 callgsubr
          hstem
          94 74 186 74 186 74 cntrmask 00011100
          433 628 -2 callgsubr
          255 -628 rmoveto
          148 694 -24 callsubr
          2 -14 callgsubr
          -112 -529 rlineto
          74 hlineto
          79 372 rlineto
          endchar
        </CharString>
        <CharString name="f_i">
          503 95 callsubr
          5 74 106 74 17 74 hintmask 1101000110000000
          561 615 86 callgsubr
          -17 -80 rlineto
          -54 -615 rmoveto
          73 callgsubr
          -74 hlineto
          -91 -430 rlineto
          3 372 rmoveto
          12 58 93 callsubr
          hintmask 0010000000000000
          28 131 rlineto
          53 12 29 27 32 hhcurveto
          19 18 -5 -9 15 hvcurveto
          15 67 rlineto
          hintmask 1100111000000000
          2 -8 -22 6 -24 hhcurveto
          -75 -69 -76 -97 -21 hvcurveto
          -21 -99 -20 callsubr
          endchar
        </CharString>
        <CharString name="f_k">
          747 43 callgsubr
          hstemhm
          94 74 5 74 -62 72 99 72 75 74 hintmask 01100100
          356 -14 callgsubr
          -21 -99 rlineto
          -69 hlineto
          -12 -58 rlineto
          hintmask 11011011
          69 hlineto
          -79 -372 rlineto
          74 hlineto
          79 372 rlineto
          474 -372 rmoveto
          -38 callgsubr
          endchar
        </CharString>
        <CharString name="f_l">
          503 43 callgsubr
          hstem
          353 74 0 74 0 74 cntrmask 00011100
          356 -14 callgsubr
          -21 -99 -20 callsubr
          180 -372 rmoveto
          148 694 -24 callsubr
          endchar
        </CharString>
        <CharString name="five">
          470 -16 59 callsubr
          465 -18 callgsubr
        </CharString>
        <CharString name="five.oldstyle">
          528 -211 59 callsubr
          376 84 vstem
          460 -16 callgsubr
        </CharString>
        <CharString name="five.prop">
          528 -16 59 callsubr
          501 -18 callgsubr
        </CharString>
        <CharString name="five.taboldstyle">
          470 -211 59 callsubr
          340 84 vstem
          424 -16 callgsubr
        </CharString>
        <CharString name="florin">
          -18 callsubr
        </CharString>
        <CharString name="four">
          470 21 -21 171 61 424 -20 hstem
          325 76 2 76 vstem
          479 5 callsubr
        </CharString>
        <CharString name="four.oldstyle">
          487 133 callgsubr
          241 79 -38 79 -63 76 -76 79 hintmask 01100100
          452 0 callsubr
        </CharString>
        <CharString name="four.prop">
          487 21 -21 171 61 424 -20 hstem
          334 76 2 76 vstem
          488 5 callsubr
        </CharString>
        <CharString name="four.taboldstyle">
          470 133 callgsubr
          232 79 -38 79 -63 76 -76 79 hintmask 01100100
          443 0 callsubr
        </CharString>
        <CharString name="fraction">
          520 611 674 rmoveto
          -40 63 callsubr
          endchar
        </CharString>
        <CharString name="fraction.alt">
          0 351 674 rmoveto
          -40 63 callsubr
          endchar
        </CharString>
        <CharString name="g">
          -38 callsubr
          1 callsubr
          hintmask 1101011100100000
          -25 callgsubr
          hintmask 0010100011000000
          -11 12 28 -17 41 hhcurveto
          83 84 70 86 18 hvcurveto
          10 48 -14 35 -7 12 rrcurveto
          3 hlineto
          3 43 3 15 hhcurveto
          32 3 -1 -3 27 hvcurveto
          -186 -94 rmoveto
          -87 -19 -58 -14 -26 hhcurveto
          hintmask 1000011101000000
          -34 -43 21 80 17 hvcurveto
          87 18 58 14 26 hhcurveto
          34 44 -21 -80 -17 hvcurveto
          7 -354 rmoveto
          -43 -9 -70 -34 -75 hhcurveto
          -76 -55 33 45 10 hvcurveto
          hintmask 0100000010100000
          5 1 13 62 69 hhcurveto
          81 hlineto
          24 101 0 -68 -14 hvcurveto
          endchar
        </CharString>
        <CharString name="gacute">
          -38 callsubr
          101 -21 176 -20 1 callsubr
          hintmask 1101010011001000
          536 376 -103 callsubr
          hintmask 0000001100000000
          126 766 -77 callgsubr
        </CharString>
        <CharString name="gbreve">
          -38 callsubr
          72 66 127 -20 1 callsubr
          hintmask 1101010011001000
          536 376 -103 callsubr
          hintmask 0000001100000000
          155 775 -3 callsubr
        </CharString>
        <CharString name="gcaron">
          -38 callsubr
          103 120 callgsubr
          1 callsubr
          hintmask 1101010011001000
          536 376 -103 callsubr
          hintmask 0000001100000000
          147 764 -80 callgsubr
        </CharString>
        <CharString name="gcedilla">
          -38 callsubr
          92 72 112 -20 1 callsubr
          hintmask 1101011111001000
          391 714 rmoveto
          -36 hlineto
          -61 -113 -15 -71 rlineto
          72 hlineto
          15 72 rlineto
          -22 hlineto
          192 -226 -103 callsubr
          endchar
        </CharString>
        <CharString name="gcircumflex">
          -38 callsubr
          103 120 callgsubr
          1 callsubr
          hintmask 1101010011001000
          536 376 -103 callsubr
          hintmask 0000001100000000
          111 592 -91 callsubr
          endchar
        </CharString>
        <CharString name="gcommaaccent">
          -38 callsubr
          92 72 112 -20 1 callsubr
          hintmask 1101011111001000
          391 714 rmoveto
          -36 hlineto
          -61 -113 -15 -71 rlineto
          72 hlineto
          15 72 rlineto
          -22 hlineto
          192 -226 -103 callsubr
          endchar
        </CharString>
        <CharString name="gdotaccent">
          -38 callsubr
          126 84 hstemhm
          11 71 34 71 -22 71 44 -8 callgsubr
          -32 71 -64 71 hintmask 1101010110000100
          -25 callgsubr
          hintmask 0010100001001000
          -11 12 28 -17 41 hhcurveto
          83 84 70 86 18 hvcurveto
          10 48 -14 35 -7 12 rrcurveto
          3 hlineto
          3 43 3 15 hhcurveto
          32 3 -1 -3 27 hvcurveto
          -186 -94 rmoveto
          -87 -19 -58 -14 -26 hhcurveto
          hintmask 1000010110001000
          -34 -43 21 80 17 hvcurveto
          87 18 58 14 26 hhcurveto
          34 44 -21 -80 -17 hvcurveto
          7 -354 rmoveto
          -43 -9 -70 -34 -75 hhcurveto
          -76 -55 33 45 10 hvcurveto
          hintmask 0100000001000100
          5 1 13 62 69 hhcurveto
          81 hlineto
          24 101 0 -68 -14 hvcurveto
          hintmask 0000001000010000
          7 636 -81 callgsubr
          hintmask 0000001000100000
          -53 callgsubr
        </CharString>
        <CharString name="germandbls">
          -48 callgsubr
        </CharString>
        <CharString name="germandbls.dup">
          -48 callgsubr
        </CharString>
        <CharString name="gnaborretni">
          444 331 -20 109 80 hstemhm
          128 64 -59 64 -64 76 37 64 -36 76 hintmask 01001010
          74 callsubr
          -52 -33 -49 -15 -40 -4 rlinecurve
          71 352 12 32 5 24 2 10 rlinecurve
          hintmask 10010100
          71 callgsubr
          -16 -77 22 -64 85 -13 rrcurveto
          hintmask 00100000
          -5 -26 rlineto
          64 hlineto
          hintmask 00010000
          5 25 77 8 64 32 21 12 rlinecurve
          -165 216 rmoveto
          -46 -204 -37 11 -3 33 9 44 rlinecurve
          10 47 16 15 19 19 rrcurveto
          endchar
        </CharString>
        <CharString name="grave">
          470 539 45 callsubr
          hstem
          412 518 -33 callgsubr
        </CharString>
        <CharString name="grave.cap">
          470 497 104 callgsubr
          hstem
          431 476 -66 callsubr
        </CharString>
        <CharString name="grave.ts1">
          470 549 -21 188 -20 hstem
          385 528 rmoveto
          -95 186 -19 2 rlineto
          -41 hlineto
          105 -188 rlineto
          endchar
        </CharString>
        <CharString name="greater">
          762 -7 -21 555 -20 hstem
          732 250 rmoveto
          1 6 0 7 -16 8 -488 249 rcurveline
          -12 6 -4 1 0 vvcurveto
          -12 -9 -10 -8 -2 hvcurveto
          -2 -12 7 -4 12 -6 463 -237 rcurveline
          -565 -238 -22 -9 -2 -7 -1 -6 rlinecurve
          -8 -2 5 -10 12 hhcurveto
          0 3 1 16 6 vhcurveto
          593 249 21 9 3 6 1 7 rlinecurve
          endchar
        </CharString>
        <CharString name="guarani">
          627 -16 64 185 61 352 64 hstemhm
          136 84 16 64 124 64 -32 64 -14 64 hintmask 11000010
          570 33 rmoveto
          55 261 rlineto
          -198 hlineto
          -12 -61 rlineto
          122 hlineto
          -36 -166 rlineto
          -7 -22 -50 -12 -50 hhcurveto
          -17 -15 2 5 -15 hvcurveto
          124 584 rlineto
          hintmask 00100001
          5 17 16 2 17 hhcurveto
          59 54 -15 -50 44 hvcurveto
          1 hlineto
          31 80 rlineto
          hintmask 00100010
          46 -70 -68 3 -37 hhcurveto
          -17 -16 -1 -3 -17 hvcurveto
          hintmask 10011101
          18 84 rlineto
          -64 hlineto
          -22 -104 -127 -53 -107 -133 -32 -153 rlinecurve
          -33 -155 52 -131 103 -53 -22 -104 rcurveline
          64 hlineto
          17 84 rlineto
          -3 16 16 -1 16 hhcurveto
          68 69 18 31 68 hvcurveto
          -295 55 rmoveto
          -56 52 -22 98 23 109 23 110 64 98 78 52 rrcurveto
          endchar
        </CharString>
        <CharString name="guillemotleft">
          470 21 -21 437 -20 hstem
          261 28 callgsubr
          218 28 callgsubr
          endchar
        </CharString>
        <CharString name="guillemotright">
          470 21 -21 437 -20 hstem
          413 219 rmoveto
          -50 218 rlineto
          -61 hlineto
          35 -218 -128 -219 rlineto
          61 hlineto
          -14 67 callsubr
        </CharString>
        <CharString name="guilsinglleft">
          313 21 -21 437 -20 hstem
          261 28 callgsubr
          endchar
        </CharString>
        <CharString name="guilsinglright">
          313 21 -21 437 -20 hstem
          256 67 callsubr
        </CharString>
        <CharString name="h">
          30 callgsubr
          256 -20 hstem
          74 76 72 74 37 76 vstem
          -81 callsubr
          endchar
        </CharString>
        <CharString name="h_uni0303">
          30 callgsubr
          256 -20 56 86 callsubr
          74 76 72 74 37 76 hintmask 11100111
          -81 callsubr
          hintmask 00001000
          246 847 -88 callsubr
          5 13 -22 callgsubr
          16 -8 -15 17 -28 callgsubr
          57 38 79 19 hvcurveto
          endchar
        </CharString>
        <CharString name="hbar">
          30 callgsubr
          92 64 100 -20 hstemhm
          74 76 -39 76 -63 76 -13 74 -61 74 -52 74 37 76 hintmask 0110000100000000
          409 hmoveto
          62 292 rlineto
          63 13 3 83 -113 hhcurveto
          -63 -47 -31 -34 -37 hvcurveto
          34 157 rlineto
          94 hlineto
          13 64 rlineto
          hintmask 0010000010000000
          -94 hlineto
          hintmask 0011001001000000
          22 100 rlineto
          -74 hlineto
          -22 -100 -67 callsubr
          hintmask 0010010000000000
          -13 -64 rlineto
          76 hlineto
          hintmask 1100100000100000
          -113 -530 -86 callsubr
          endchar
        </CharString>
        <CharString name="hbrevebelow">
          484 119 callgsubr
          102 112 callgsubr
          256 -20 hstemhm
          74 76 72 74 37 76 hintmask 00111111
          -81 callsubr
          hintmask 11000000
          57 -31 callsubr
        </CharString>
        <CharString name="hcircumflex">
          30 callgsubr
          256 -20 77 -21 134 -20 hstemhm
          74 76 72 74 37 76 hintmask 11100111
          -81 callsubr
          hintmask 00011000
          220 -4 callgsubr
        </CharString>
        <CharString name="hdieresis">
          30 callgsubr
          256 -20 56 75 hstemhm
          74 76 72 74 -19 76 -60 76 -36 76 32 76 -60 76 hintmask 1110110010000000
          -81 callsubr
          hintmask 0001000100000000
          20 38 callgsubr
        </CharString>
        <CharString name="hdotbelow">
          484 26 callgsubr
          377 61 256 -20 hstemhm
          74 76 7 -8 callgsubr
          -37 74 37 76 hintmask 0111100110000000
          -81 callsubr
          hintmask 1000001000000000
          -92 -200 -81 callgsubr
          hintmask 1000010000000000
          -53 callgsubr
        </CharString>
        <CharString name="hungarumlaut">
          470 539 45 callsubr
          hstem
          382 694 -58 callgsubr
        </CharString>
        <CharString name="hungarumlaut.cap">
          470 497 45 callsubr
          hstem
          373 652 -58 callgsubr
        </CharString>
        <CharString name="hungarumlaut.ts1">
          97 callgsubr
          387 716 105 callgsubr
          242 138 105 callgsubr
          endchar
        </CharString>
        <CharString name="hyphen">
          -3 callgsubr
        </CharString>
        <CharString name="hyphen.alt">
          157 186 58 hstem
          300 48 callsubr
          -12 -58 rlineto
          endchar
        </CharString>
        <CharString name="hyphen.dup">
          -3 callgsubr
        </CharString>
        <CharString name="hyphen.prop">
          313 294 58 hstem
          107 250 vstem
          344 294 rmoveto
          13 58 rlineto
          -250 hlineto
          -13 -58 rlineto
          endchar
        </CharString>
        <CharString name="hyphendbl">
          313 25 callgsubr
        </CharString>
        <CharString name="hyphendbl.alt">
          157 25 callgsubr
        </CharString>
        <CharString name="i">
          3 callgsubr
          154 84 69 callsubr
          -49 -8 callgsubr
          hintmask 11011000
          -60 callgsubr
          hintmask 00100010
          200 96 callgsubr
        </CharString>
        <CharString name="i_j">
          449 -203 64 703 84 69 callsubr
          -50 -8 callgsubr
          100 74 -55 -8 callgsubr
          hintmask 0100010000000000
          273 110 callsubr
          hintmask 0100100010000000
          -18 -84 rlineto
          305 hmoveto
          18 84 -21 callsubr
          hintmask 0111000100000000
          -18 -84 rlineto
          -262 -564 rmoveto
          73 callgsubr
          -74 hlineto
          -91 -430 rlineto
          287 -60 rmoveto
          hintmask 1000001000000000
          104 490 rlineto
          -74 hlineto
          -106 -499 rlineto
          -61 -13 -48 -9 -26 hhcurveto
          -22 -24 7 24 -18 hvcurveto
          -28 -61 rlineto
          -20 28 36 -14 42 hhcurveto
          63 67 54 89 19 hvcurveto
          endchar
        </CharString>
        <CharString name="iacute">
          3 callgsubr
          129 -21 176 -20 69 callsubr
          hintmask 11001100
          -60 callgsubr
          hintmask 00110000
          348 694 -77 callgsubr
        </CharString>
        <CharString name="ibreve">
          3 callgsubr
          100 66 127 -20 69 callsubr
          hintmask 11001100
          -60 callgsubr
          hintmask 00110000
          347 -51 callsubr
          endchar
        </CharString>
        <CharString name="icaron">
          3 callgsubr
          131 120 callgsubr
          69 callsubr
          hintmask 11001100
          -60 callgsubr
          hintmask 00110000
          339 692 -80 callgsubr
        </CharString>
</ttFont>
